<mxfile host="app.diagrams.net" agent="Mozilla/5.0 (Windows NT 10.0; Win64; x64) AppleWebKit/537.36 (KHTML, like Gecko) Chrome/130.0.0.0 Safari/537.36" version="24.8.6">
  <diagram name="Page-1" id="_ytgaHepzzwcKjkl0jKX">
    <mxGraphModel dx="1235" dy="614" grid="1" gridSize="10" guides="1" tooltips="1" connect="1" arrows="1" fold="1" page="1" pageScale="1" pageWidth="1100" pageHeight="850" math="0" shadow="0">
      <root>
        <mxCell id="0" />
        <mxCell id="1" parent="0" />
        <mxCell id="P0WSRWI9Bc2csYWGWG9O-1" value="Teacher" style="rounded=1;arcSize=10;whiteSpace=wrap;html=1;align=center;" vertex="1" parent="1">
          <mxGeometry x="10" y="160" width="100" height="40" as="geometry" />
        </mxCell>
        <mxCell id="P0WSRWI9Bc2csYWGWG9O-2" value="Course" style="rounded=1;arcSize=10;whiteSpace=wrap;html=1;align=center;" vertex="1" parent="1">
          <mxGeometry x="385" y="160" width="100" height="40" as="geometry" />
        </mxCell>
        <mxCell id="P0WSRWI9Bc2csYWGWG9O-3" value="Student" style="rounded=1;arcSize=10;whiteSpace=wrap;html=1;align=center;" vertex="1" parent="1">
          <mxGeometry x="730" y="160" width="100" height="40" as="geometry" />
        </mxCell>
        <mxCell id="P0WSRWI9Bc2csYWGWG9O-4" value="Subject" style="rounded=1;arcSize=10;whiteSpace=wrap;html=1;align=center;" vertex="1" parent="1">
          <mxGeometry x="385" y="360" width="100" height="40" as="geometry" />
        </mxCell>
        <mxCell id="P0WSRWI9Bc2csYWGWG9O-6" value="Teaches" style="shape=rhombus;perimeter=rhombusPerimeter;whiteSpace=wrap;html=1;align=center;" vertex="1" parent="1">
          <mxGeometry x="180" y="150" width="130" height="60" as="geometry" />
        </mxCell>
        <mxCell id="P0WSRWI9Bc2csYWGWG9O-7" value="Enrolled" style="shape=rhombus;perimeter=rhombusPerimeter;whiteSpace=wrap;html=1;align=center;" vertex="1" parent="1">
          <mxGeometry x="560" y="150" width="120" height="60" as="geometry" />
        </mxCell>
        <mxCell id="P0WSRWI9Bc2csYWGWG9O-8" value="Has" style="shape=rhombus;perimeter=rhombusPerimeter;whiteSpace=wrap;html=1;align=center;" vertex="1" parent="1">
          <mxGeometry x="375" y="250" width="120" height="60" as="geometry" />
        </mxCell>
        <mxCell id="P0WSRWI9Bc2csYWGWG9O-9" value="takes" style="shape=rhombus;perimeter=rhombusPerimeter;whiteSpace=wrap;html=1;align=center;" vertex="1" parent="1">
          <mxGeometry x="720" y="250" width="120" height="60" as="geometry" />
        </mxCell>
        <mxCell id="P0WSRWI9Bc2csYWGWG9O-10" value="" style="endArrow=none;html=1;rounded=0;entryX=0;entryY=0.5;entryDx=0;entryDy=0;exitX=1;exitY=0.5;exitDx=0;exitDy=0;" edge="1" parent="1" source="P0WSRWI9Bc2csYWGWG9O-1" target="P0WSRWI9Bc2csYWGWG9O-6">
          <mxGeometry relative="1" as="geometry">
            <mxPoint x="100" y="180" as="sourcePoint" />
            <mxPoint x="260" y="180" as="targetPoint" />
          </mxGeometry>
        </mxCell>
        <mxCell id="P0WSRWI9Bc2csYWGWG9O-11" value="" style="shape=link;html=1;rounded=0;" edge="1" parent="1">
          <mxGeometry relative="1" as="geometry">
            <mxPoint x="310" y="180" as="sourcePoint" />
            <mxPoint x="380" y="180" as="targetPoint" />
          </mxGeometry>
        </mxCell>
        <mxCell id="P0WSRWI9Bc2csYWGWG9O-12" value="" style="resizable=0;html=1;whiteSpace=wrap;align=left;verticalAlign=bottom;" connectable="0" vertex="1" parent="P0WSRWI9Bc2csYWGWG9O-11">
          <mxGeometry x="-1" relative="1" as="geometry" />
        </mxCell>
        <mxCell id="P0WSRWI9Bc2csYWGWG9O-13" value="N" style="resizable=0;html=1;whiteSpace=wrap;align=right;verticalAlign=bottom;" connectable="0" vertex="1" parent="P0WSRWI9Bc2csYWGWG9O-11">
          <mxGeometry x="1" relative="1" as="geometry">
            <mxPoint x="-30" as="offset" />
          </mxGeometry>
        </mxCell>
        <mxCell id="P0WSRWI9Bc2csYWGWG9O-14" value="&lt;div style=&quot;text-align: left;&quot;&gt;&lt;span style=&quot;background-color: initial;&quot;&gt;1&lt;/span&gt;&lt;/div&gt;" style="text;html=1;align=center;verticalAlign=middle;resizable=0;points=[];autosize=1;strokeColor=none;fillColor=none;" vertex="1" parent="1">
          <mxGeometry x="135" y="158" width="30" height="30" as="geometry" />
        </mxCell>
        <mxCell id="P0WSRWI9Bc2csYWGWG9O-15" value="Exam" style="shape=ext;margin=3;double=1;whiteSpace=wrap;html=1;align=center;" vertex="1" parent="1">
          <mxGeometry x="730" y="370" width="100" height="40" as="geometry" />
        </mxCell>
        <mxCell id="P0WSRWI9Bc2csYWGWG9O-16" value="" style="endArrow=none;html=1;rounded=0;" edge="1" parent="1">
          <mxGeometry relative="1" as="geometry">
            <mxPoint x="485" y="179.70999999999998" as="sourcePoint" />
            <mxPoint x="560" y="180" as="targetPoint" />
          </mxGeometry>
        </mxCell>
        <mxCell id="P0WSRWI9Bc2csYWGWG9O-17" value="" style="endArrow=none;html=1;rounded=0;" edge="1" parent="1">
          <mxGeometry relative="1" as="geometry">
            <mxPoint x="680" y="180" as="sourcePoint" />
            <mxPoint x="730" y="180" as="targetPoint" />
          </mxGeometry>
        </mxCell>
        <mxCell id="P0WSRWI9Bc2csYWGWG9O-18" value="M&lt;span style=&quot;color: rgba(0, 0, 0, 0); font-family: monospace; font-size: 0px; text-align: start;&quot;&gt;%3CmxGraphModel%3E%3Croot%3E%3CmxCell%20id%3D%220%22%2F%3E%3CmxCell%20id%3D%221%22%20parent%3D%220%22%2F%3E%3CmxCell%20id%3D%222%22%20value%3D%22%22%20style%3D%22endArrow%3Dnone%3Bhtml%3D1%3Brounded%3D0%3B%22%20edge%3D%221%22%20parent%3D%221%22%3E%3CmxGeometry%20relative%3D%221%22%20as%3D%22geometry%22%3E%3CmxPoint%20x%3D%22485%22%20y%3D%22179.70999999999998%22%20as%3D%22sourcePoint%22%2F%3E%3CmxPoint%20x%3D%22560%22%20y%3D%22180%22%20as%3D%22targetPoint%22%2F%3E%3C%2FmxGeometry%3E%3C%2FmxCell%3E%3C%2Froot%3E%3C%2FmxGraphModel%3E&lt;/span&gt;" style="text;html=1;align=center;verticalAlign=middle;resizable=0;points=[];autosize=1;strokeColor=none;fillColor=none;" vertex="1" parent="1">
          <mxGeometry x="510" y="158" width="30" height="30" as="geometry" />
        </mxCell>
        <mxCell id="P0WSRWI9Bc2csYWGWG9O-19" value="M" style="text;html=1;align=center;verticalAlign=middle;resizable=0;points=[];autosize=1;strokeColor=none;fillColor=none;" vertex="1" parent="1">
          <mxGeometry x="690" y="158" width="30" height="30" as="geometry" />
        </mxCell>
        <mxCell id="P0WSRWI9Bc2csYWGWG9O-20" value="" style="endArrow=none;html=1;rounded=0;exitX=0.5;exitY=1;exitDx=0;exitDy=0;entryX=0.5;entryY=0;entryDx=0;entryDy=0;" edge="1" parent="1" source="P0WSRWI9Bc2csYWGWG9O-2" target="P0WSRWI9Bc2csYWGWG9O-8">
          <mxGeometry relative="1" as="geometry">
            <mxPoint x="440" y="300" as="sourcePoint" />
            <mxPoint x="440" y="240" as="targetPoint" />
          </mxGeometry>
        </mxCell>
        <mxCell id="P0WSRWI9Bc2csYWGWG9O-22" value="" style="shape=link;html=1;rounded=0;entryX=0.5;entryY=0;entryDx=0;entryDy=0;exitX=0.5;exitY=1;exitDx=0;exitDy=0;" edge="1" parent="1" source="P0WSRWI9Bc2csYWGWG9O-8" target="P0WSRWI9Bc2csYWGWG9O-4">
          <mxGeometry relative="1" as="geometry">
            <mxPoint x="440" y="300" as="sourcePoint" />
            <mxPoint x="600" y="300" as="targetPoint" />
          </mxGeometry>
        </mxCell>
        <mxCell id="P0WSRWI9Bc2csYWGWG9O-23" value="N" style="resizable=0;html=1;whiteSpace=wrap;align=right;verticalAlign=bottom;" connectable="0" vertex="1" parent="P0WSRWI9Bc2csYWGWG9O-22">
          <mxGeometry x="1" relative="1" as="geometry">
            <mxPoint x="-10" y="-20" as="offset" />
          </mxGeometry>
        </mxCell>
        <mxCell id="P0WSRWI9Bc2csYWGWG9O-24" value="1" style="text;html=1;align=center;verticalAlign=middle;resizable=0;points=[];autosize=1;strokeColor=none;fillColor=none;" vertex="1" parent="1">
          <mxGeometry x="405" y="208" width="30" height="30" as="geometry" />
        </mxCell>
        <mxCell id="P0WSRWI9Bc2csYWGWG9O-25" value="Examined&lt;br&gt;In" style="shape=rhombus;perimeter=rhombusPerimeter;whiteSpace=wrap;html=1;align=center;" vertex="1" parent="1">
          <mxGeometry x="560" y="360" width="120" height="60" as="geometry" />
        </mxCell>
        <mxCell id="P0WSRWI9Bc2csYWGWG9O-26" value="" style="shape=link;html=1;rounded=0;" edge="1" parent="1">
          <mxGeometry relative="1" as="geometry">
            <mxPoint x="680" y="390" as="sourcePoint" />
            <mxPoint x="730" y="390" as="targetPoint" />
          </mxGeometry>
        </mxCell>
        <mxCell id="P0WSRWI9Bc2csYWGWG9O-27" value="M" style="resizable=0;html=1;whiteSpace=wrap;align=right;verticalAlign=bottom;" connectable="0" vertex="1" parent="P0WSRWI9Bc2csYWGWG9O-26">
          <mxGeometry x="1" relative="1" as="geometry" />
        </mxCell>
        <mxCell id="P0WSRWI9Bc2csYWGWG9O-28" value="" style="endArrow=none;html=1;rounded=0;exitX=1.05;exitY=0.5;exitDx=0;exitDy=0;exitPerimeter=0;entryX=0;entryY=0.5;entryDx=0;entryDy=0;" edge="1" parent="1" source="P0WSRWI9Bc2csYWGWG9O-4" target="P0WSRWI9Bc2csYWGWG9O-25">
          <mxGeometry relative="1" as="geometry">
            <mxPoint x="580" y="420" as="sourcePoint" />
            <mxPoint x="740" y="420" as="targetPoint" />
          </mxGeometry>
        </mxCell>
        <mxCell id="P0WSRWI9Bc2csYWGWG9O-29" value="1" style="resizable=0;html=1;whiteSpace=wrap;align=right;verticalAlign=bottom;" connectable="0" vertex="1" parent="P0WSRWI9Bc2csYWGWG9O-28">
          <mxGeometry x="1" relative="1" as="geometry" />
        </mxCell>
        <mxCell id="P0WSRWI9Bc2csYWGWG9O-33" value="" style="endArrow=none;html=1;rounded=0;exitX=0.5;exitY=1;exitDx=0;exitDy=0;entryX=0.5;entryY=0;entryDx=0;entryDy=0;" edge="1" parent="1" source="P0WSRWI9Bc2csYWGWG9O-9" target="P0WSRWI9Bc2csYWGWG9O-15">
          <mxGeometry relative="1" as="geometry">
            <mxPoint x="670" y="260" as="sourcePoint" />
            <mxPoint x="780" y="360" as="targetPoint" />
          </mxGeometry>
        </mxCell>
        <mxCell id="P0WSRWI9Bc2csYWGWG9O-34" value="M" style="resizable=0;html=1;whiteSpace=wrap;align=right;verticalAlign=bottom;" connectable="0" vertex="1" parent="P0WSRWI9Bc2csYWGWG9O-33">
          <mxGeometry x="1" relative="1" as="geometry" />
        </mxCell>
        <mxCell id="P0WSRWI9Bc2csYWGWG9O-35" value="" style="endArrow=none;html=1;rounded=0;entryX=0.5;entryY=0;entryDx=0;entryDy=0;exitX=0.5;exitY=1;exitDx=0;exitDy=0;" edge="1" parent="1" source="P0WSRWI9Bc2csYWGWG9O-3" target="P0WSRWI9Bc2csYWGWG9O-9">
          <mxGeometry relative="1" as="geometry">
            <mxPoint x="670" y="260" as="sourcePoint" />
            <mxPoint x="830" y="260" as="targetPoint" />
          </mxGeometry>
        </mxCell>
        <mxCell id="P0WSRWI9Bc2csYWGWG9O-36" value="M" style="resizable=0;html=1;whiteSpace=wrap;align=right;verticalAlign=bottom;" connectable="0" vertex="1" parent="P0WSRWI9Bc2csYWGWG9O-35">
          <mxGeometry x="1" relative="1" as="geometry" />
        </mxCell>
        <mxCell id="P0WSRWI9Bc2csYWGWG9O-37" value="T_Id" style="ellipse;whiteSpace=wrap;html=1;align=center;fontStyle=4;" vertex="1" parent="1">
          <mxGeometry y="85" width="60" height="20" as="geometry" />
        </mxCell>
        <mxCell id="P0WSRWI9Bc2csYWGWG9O-41" value="Name&lt;span style=&quot;color: rgba(0, 0, 0, 0); font-family: monospace; font-size: 0px; text-align: start; text-wrap-mode: nowrap;&quot;&gt;%3CmxGraphModel%3E%3Croot%3E%3CmxCell%20id%3D%220%22%2F%3E%3CmxCell%20id%3D%221%22%20parent%3D%220%22%2F%3E%3CmxCell%20id%3D%222%22%20value%3D%22T_Email%26lt%3Bspan%20style%3D%26quot%3Bcolor%3A%20rgba(0%2C%200%2C%200%2C%200)%3B%20font-family%3A%20monospace%3B%20font-size%3A%200px%3B%20text-align%3A%20start%3B%20text-wrap-mode%3A%20nowrap%3B%26quot%3B%26gt%3B%253CmxGraphModel%253E%253Croot%253E%253CmxCell%2520id%253D%25220%2522%252F%253E%253CmxCell%2520id%253D%25221%2522%2520parent%253D%25220%2522%252F%253E%253CmxCell%2520id%253D%25222%2522%2520value%253D%2522T_Name%2526lt%253Bspan%2520style%253D%2526quot%253Bcolor%253A%2520rgba(0%252C%25200%252C%25200%252C%25200)%253B%2520font-family%253A%2520monospace%253B%2520font-size%253A%25200px%253B%2520text-align%253A%2520start%253B%2520text-wrap-mode%253A%2520nowrap%253B%2526quot%253B%2526gt%253B%25253CmxGraphModel%25253E%25253Croot%25253E%25253CmxCell%252520id%25253D%2525220%252522%25252F%25253E%25253CmxCell%252520id%25253D%2525221%252522%252520parent%25253D%2525220%252522%25252F%25253E%25253CmxCell%252520id%25253D%2525222%252522%252520value%25253D%252522T_Id%252522%252520style%25253D%252522ellipse%25253BwhiteSpace%25253Dwrap%25253Bhtml%25253D1%25253Balign%25253Dcenter%25253BfontStyle%25253D4%25253B%252522%252520vertex%25253D%2525221%252522%252520parent%25253D%2525221%252522%25253E%25253CmxGeometry%252520y%25253D%25252260%252522%252520width%25253D%25252260%252522%252520height%25253D%25252220%252522%252520as%25253D%252522geometry%252522%25252F%25253E%25253C%25252FmxCell%25253E%25253C%25252Froot%25253E%25253C%25252FmxGraphModel%25253E%2526lt%253B%252Fspan%2526gt%253B%2522%2520style%253D%2522ellipse%253BwhiteSpace%253Dwrap%253Bhtml%253D1%253Balign%253Dcenter%253BfontStyle%253D4%253B%2522%2520vertex%253D%25221%2522%2520parent%253D%25221%2522%253E%253CmxGeometry%2520x%253D%252260%2522%2520y%253D%252280%2522%2520width%253D%252260%2522%2520height%253D%252220%2522%2520as%253D%2522geometry%2522%252F%253E%253C%252FmxCell%253E%253C%252Froot%253E%253C%252FmxGraphModel%253E%26lt%3B%2Fspan%26gt%3B%26lt%3Bspan%20style%3D%26quot%3Bcolor%3A%20rgba(0%2C%200%2C%200%2C%200)%3B%20font-family%3A%20monospace%3B%20font-size%3A%200px%3B%20text-align%3A%20start%3B%20text-wrap-mode%3A%20nowrap%3B%26quot%3B%26gt%3B%253CmxGraphModel%253E%253Croot%253E%253CmxCell%2520id%253D%25220%2522%252F%253E%253CmxCell%2520id%253D%25221%2522%2520parent%253D%25220%2522%252F%253E%253CmxCell%2520id%253D%25222%2522%2520value%253D%2522T_Id%2522%2520style%253D%2522ellipse%253BwhiteSpace%253Dwrap%253Bhtml%253D1%253Balign%253Dcenter%253BfontStyle%253D4%253B%2522%2520vertex%253D%25221%2522%2520parent%253D%25221%2522%253E%253CmxGeometry%2520y%253D%252260%2522%2520width%253D%252260%2522%2520height%253D%252220%2522%2520as%253D%2522geometry%2522%252F%253E%253C%252FmxCell%253E%253C%252Froot%253E%253C%252FmxGraphModel%253E%26lt%3B%2Fspan%26gt%3B%22%20style%3D%22ellipse%3BwhiteSpace%3Dwrap%3Bhtml%3D1%3Balign%3Dcenter%3BfontStyle%3D4%3B%22%20vertex%3D%221%22%20parent%3D%221%22%3E%3CmxGeometry%20x%3D%22120%22%20y%3D%22110%22%20width%3D%2260%22%20height%3D%2220%22%20as%3D%22geometry%22%2F%3E%3C%2FmxCell%3E%3C%2Froot%3E%3C%2FmxGraphModel%3E&lt;/span&gt;" style="ellipse;whiteSpace=wrap;html=1;align=center;" vertex="1" parent="1">
          <mxGeometry x="50" y="50" width="60" height="20" as="geometry" />
        </mxCell>
        <mxCell id="P0WSRWI9Bc2csYWGWG9O-42" value="Dept" style="ellipse;whiteSpace=wrap;html=1;align=center;" vertex="1" parent="1">
          <mxGeometry x="210" y="75" width="60" height="20" as="geometry" />
        </mxCell>
        <mxCell id="P0WSRWI9Bc2csYWGWG9O-43" value="Email" style="ellipse;whiteSpace=wrap;html=1;align=center;" vertex="1" parent="1">
          <mxGeometry x="135" y="55" width="60" height="20" as="geometry" />
        </mxCell>
        <mxCell id="P0WSRWI9Bc2csYWGWG9O-45" value="Qualification" style="ellipse;shape=doubleEllipse;margin=3;whiteSpace=wrap;html=1;align=center;" vertex="1" parent="1">
          <mxGeometry x="110" y="10" width="80" height="30" as="geometry" />
        </mxCell>
        <mxCell id="P0WSRWI9Bc2csYWGWG9O-46" value="Phone" style="ellipse;shape=doubleEllipse;margin=3;whiteSpace=wrap;html=1;align=center;" vertex="1" parent="1">
          <mxGeometry x="210" y="30" width="55" height="20" as="geometry" />
        </mxCell>
        <mxCell id="P0WSRWI9Bc2csYWGWG9O-49" value="" style="endArrow=none;html=1;rounded=0;entryX=0;entryY=0.25;entryDx=0;entryDy=0;entryPerimeter=0;exitX=0.709;exitY=0.993;exitDx=0;exitDy=0;exitPerimeter=0;" edge="1" parent="1" source="P0WSRWI9Bc2csYWGWG9O-37" target="P0WSRWI9Bc2csYWGWG9O-1">
          <mxGeometry relative="1" as="geometry">
            <mxPoint x="-30" y="230" as="sourcePoint" />
            <mxPoint x="130" y="230" as="targetPoint" />
          </mxGeometry>
        </mxCell>
        <mxCell id="P0WSRWI9Bc2csYWGWG9O-51" value="" style="endArrow=none;html=1;rounded=0;entryX=0.15;entryY=0.003;entryDx=0;entryDy=0;entryPerimeter=0;exitX=0.5;exitY=1;exitDx=0;exitDy=0;exitPerimeter=0;" edge="1" parent="1" source="P0WSRWI9Bc2csYWGWG9O-41" target="P0WSRWI9Bc2csYWGWG9O-1">
          <mxGeometry relative="1" as="geometry">
            <mxPoint y="110" as="sourcePoint" />
            <mxPoint x="18" y="186" as="targetPoint" />
          </mxGeometry>
        </mxCell>
        <mxCell id="P0WSRWI9Bc2csYWGWG9O-53" value="" style="endArrow=none;html=1;rounded=0;entryX=0.4;entryY=0;entryDx=0;entryDy=0;exitX=0.333;exitY=0.976;exitDx=0;exitDy=0;exitPerimeter=0;entryPerimeter=0;" edge="1" parent="1" source="P0WSRWI9Bc2csYWGWG9O-45" target="P0WSRWI9Bc2csYWGWG9O-1">
          <mxGeometry relative="1" as="geometry">
            <mxPoint x="60" y="240" as="sourcePoint" />
            <mxPoint x="220" y="240" as="targetPoint" />
          </mxGeometry>
        </mxCell>
        <mxCell id="P0WSRWI9Bc2csYWGWG9O-54" value="" style="endArrow=none;html=1;rounded=0;entryX=0.538;entryY=0;entryDx=0;entryDy=0;entryPerimeter=0;exitX=0.333;exitY=1;exitDx=0;exitDy=0;exitPerimeter=0;" edge="1" parent="1" source="P0WSRWI9Bc2csYWGWG9O-43" target="P0WSRWI9Bc2csYWGWG9O-1">
          <mxGeometry relative="1" as="geometry">
            <mxPoint x="10" y="110" as="sourcePoint" />
            <mxPoint x="37" y="171" as="targetPoint" />
          </mxGeometry>
        </mxCell>
        <mxCell id="P0WSRWI9Bc2csYWGWG9O-55" value="" style="endArrow=none;html=1;rounded=0;entryX=0.72;entryY=0;entryDx=0;entryDy=0;entryPerimeter=0;exitX=0.077;exitY=0.779;exitDx=0;exitDy=0;exitPerimeter=0;" edge="1" parent="1" source="P0WSRWI9Bc2csYWGWG9O-42" target="P0WSRWI9Bc2csYWGWG9O-1">
          <mxGeometry relative="1" as="geometry">
            <mxPoint x="77" y="112" as="sourcePoint" />
            <mxPoint x="74" y="171" as="targetPoint" />
          </mxGeometry>
        </mxCell>
        <mxCell id="P0WSRWI9Bc2csYWGWG9O-56" value="" style="endArrow=none;html=1;rounded=0;entryX=0.62;entryY=-0.003;entryDx=0;entryDy=0;entryPerimeter=0;exitX=0.278;exitY=0.98;exitDx=0;exitDy=0;exitPerimeter=0;" edge="1" parent="1" source="P0WSRWI9Bc2csYWGWG9O-46" target="P0WSRWI9Bc2csYWGWG9O-1">
          <mxGeometry relative="1" as="geometry">
            <mxPoint x="140" y="126" as="sourcePoint" />
            <mxPoint x="91" y="171" as="targetPoint" />
          </mxGeometry>
        </mxCell>
        <mxCell id="P0WSRWI9Bc2csYWGWG9O-57" value="CrsId" style="ellipse;whiteSpace=wrap;html=1;align=center;fontStyle=4;" vertex="1" parent="1">
          <mxGeometry x="335" y="100" width="60" height="20" as="geometry" />
        </mxCell>
        <mxCell id="P0WSRWI9Bc2csYWGWG9O-58" value="CrsName&lt;span style=&quot;color: rgba(0, 0, 0, 0); font-family: monospace; font-size: 0px; text-align: start; text-wrap-mode: nowrap;&quot;&gt;%3CmxGraphModel%3E%3Croot%3E%3CmxCell%20id%3D%220%22%2F%3E%3CmxCell%20id%3D%221%22%20parent%3D%220%22%2F%3E%3CmxCell%20id%3D%222%22%20value%3D%22T_Email%26lt%3Bspan%20style%3D%26quot%3Bcolor%3A%20rgba(0%2C%200%2C%200%2C%200)%3B%20font-family%3A%20monospace%3B%20font-size%3A%200px%3B%20text-align%3A%20start%3B%20text-wrap-mode%3A%20nowrap%3B%26quot%3B%26gt%3B%253CmxGraphModel%253E%253Croot%253E%253CmxCell%2520id%253D%25220%2522%252F%253E%253CmxCell%2520id%253D%25221%2522%2520parent%253D%25220%2522%252F%253E%253CmxCell%2520id%253D%25222%2522%2520value%253D%2522T_Name%2526lt%253Bspan%2520style%253D%2526quot%253Bcolor%253A%2520rgba(0%252C%25200%252C%25200%252C%25200)%253B%2520font-family%253A%2520monospace%253B%2520font-size%253A%25200px%253B%2520text-align%253A%2520start%253B%2520text-wrap-mode%253A%2520nowrap%253B%2526quot%253B%2526gt%253B%25253CmxGraphModel%25253E%25253Croot%25253E%25253CmxCell%252520id%25253D%2525220%252522%25252F%25253E%25253CmxCell%252520id%25253D%2525221%252522%252520parent%25253D%2525220%252522%25252F%25253E%25253CmxCell%252520id%25253D%2525222%252522%252520value%25253D%252522T_Id%252522%252520style%25253D%252522ellipse%25253BwhiteSpace%25253Dwrap%25253Bhtml%25253D1%25253Balign%25253Dcenter%25253BfontStyle%25253D4%25253B%252522%252520vertex%25253D%2525221%252522%252520parent%25253D%2525221%252522%25253E%25253CmxGeometry%252520y%25253D%25252260%252522%252520width%25253D%25252260%252522%252520height%25253D%25252220%252522%252520as%25253D%252522geometry%252522%25252F%25253E%25253C%25252FmxCell%25253E%25253C%25252Froot%25253E%25253C%25252FmxGraphModel%25253E%2526lt%253B%252Fspan%2526gt%253B%2522%2520style%253D%2522ellipse%253BwhiteSpace%253Dwrap%253Bhtml%253D1%253Balign%253Dcenter%253BfontStyle%253D4%253B%2522%2520vertex%253D%25221%2522%2520parent%253D%25221%2522%253E%253CmxGeometry%2520x%253D%252260%2522%2520y%253D%252280%2522%2520width%253D%252260%2522%2520height%253D%252220%2522%2520as%253D%2522geometry%2522%252F%253E%253C%252FmxCell%253E%253C%252Froot%253E%253C%252FmxGraphModel%253E%26lt%3B%2Fspan%26gt%3B%26lt%3Bspan%20style%3D%26quot%3Bcolor%3A%20rgba(0%2C%200%2C%200%2C%200)%3B%20font-family%3A%20monospace%3B%20font-size%3A%200px%3B%20text-align%3A%20start%3B%20text-wrap-mode%3A%20nowrap%3B%26quot%3B%26gt%3B%253CmxGraphModel%253E%253Croot%253E%253CmxCell%2520id%253D%25220%2522%252F%253E%253CmxCell%2520id%253D%25221%2522%2520parent%253D%25220%2522%252F%253E%253CmxCell%2520id%253D%25222%2522%2520value%253D%2522T_Id%2522%2520style%253D%2522ellipse%253BwhiteSpace%253Dwrap%253Bhtml%253D1%253Balign%253Dcenter%253BfontStyle%253D4%253B%2522%2520vertex%253D%25221%2522%2520parent%253D%25221%2522%253E%253CmxGeometry%2520y%253D%252260%2522%2520width%253D%252260%2522%2520height%253D%252220%2522%2520as%253D%2522geometry%2522%252F%253E%253C%252FmxCell%253E%253C%252Froot%253E%253C%252FmxGraphModel%253E%26lt%3B%2Fspan%26gt%3B%22%20style%3D%22ellipse%3BwhiteSpace%3Dwrap%3Bhtml%3D1%3Balign%3Dcenter%3BfontStyle%3D4%3B%22%20vertex%3D%221%22%20parent%3D%221%22%3E%3CmxGeometry%20x%3D%22120%22%20y%3D%22110%22%20width%3D%2260%22%20height%3D%2220%22%20as%3D%22geometry%22%2F%3E%3C%2FmxCell%3E%3C%2Froot%3E%3C%2FmxGraphModel%3E&lt;/span&gt;" style="ellipse;whiteSpace=wrap;html=1;align=center;" vertex="1" parent="1">
          <mxGeometry x="395" y="80" width="60" height="20" as="geometry" />
        </mxCell>
        <mxCell id="P0WSRWI9Bc2csYWGWG9O-59" value="CrsDuration&lt;span style=&quot;color: rgba(0, 0, 0, 0); font-family: monospace; font-size: 0px; text-align: start; text-wrap-mode: nowrap;&quot;&gt;%3CmxGraphModel%3E%3Croot%3E%3CmxCell%20id%3D%220%22%2F%3E%3CmxCell%20id%3D%221%22%20parent%3D%220%22%2F%3E%3CmxCell%20id%3D%222%22%20value%3D%22T_Email%26lt%3Bspan%20style%3D%26quot%3Bcolor%3A%20rgba(0%2C%200%2C%200%2C%200)%3B%20font-family%3A%20monospace%3B%20font-size%3A%200px%3B%20text-align%3A%20start%3B%20text-wrap-mode%3A%20nowrap%3B%26quot%3B%26gt%3B%253CmxGraphModel%253E%253Croot%253E%253CmxCell%2520id%253D%25220%2522%252F%253E%253CmxCell%2520id%253D%25221%2522%2520parent%253D%25220%2522%252F%253E%253CmxCell%2520id%253D%25222%2522%2520value%253D%2522T_Name%2526lt%253Bspan%2520style%253D%2526quot%253Bcolor%253A%2520rgba(0%252C%25200%252C%25200%252C%25200)%253B%2520font-family%253A%2520monospace%253B%2520font-size%253A%25200px%253B%2520text-align%253A%2520start%253B%2520text-wrap-mode%253A%2520nowrap%253B%2526quot%253B%2526gt%253B%25253CmxGraphModel%25253E%25253Croot%25253E%25253CmxCell%252520id%25253D%2525220%252522%25252F%25253E%25253CmxCell%252520id%25253D%2525221%252522%252520parent%25253D%2525220%252522%25252F%25253E%25253CmxCell%252520id%25253D%2525222%252522%252520value%25253D%252522T_Id%252522%252520style%25253D%252522ellipse%25253BwhiteSpace%25253Dwrap%25253Bhtml%25253D1%25253Balign%25253Dcenter%25253BfontStyle%25253D4%25253B%252522%252520vertex%25253D%2525221%252522%252520parent%25253D%2525221%252522%25253E%25253CmxGeometry%252520y%25253D%25252260%252522%252520width%25253D%25252260%252522%252520height%25253D%25252220%252522%252520as%25253D%252522geometry%252522%25252F%25253E%25253C%25252FmxCell%25253E%25253C%25252Froot%25253E%25253C%25252FmxGraphModel%25253E%2526lt%253B%252Fspan%2526gt%253B%2522%2520style%253D%2522ellipse%253BwhiteSpace%253Dwrap%253Bhtml%253D1%253Balign%253Dcenter%253BfontStyle%253D4%253B%2522%2520vertex%253D%25221%2522%2520parent%253D%25221%2522%253E%253CmxGeometry%2520x%253D%252260%2522%2520y%253D%252280%2522%2520width%253D%252260%2522%2520height%253D%252220%2522%2520as%253D%2522geometry%2522%252F%253E%253C%252FmxCell%253E%253C%252Froot%253E%253C%252FmxGraphModel%253E%26lt%3B%2Fspan%26gt%3B%26lt%3Bspan%20style%3D%26quot%3Bcolor%3A%20rgba(0%2C%200%2C%200%2C%200)%3B%20font-family%3A%20monospace%3B%20font-size%3A%200px%3B%20text-align%3A%20start%3B%20text-wrap-mode%3A%20nowrap%3B%26quot%3B%26gt%3B%253CmxGraphModel%253E%253Croot%253E%253CmxCell%2520id%253D%25220%2522%252F%253E%253CmxCell%2520id%253D%25221%2522%2520parent%253D%25220%2522%252F%253E%253CmxCell%2520id%253D%25222%2522%2520value%253D%2522T_Id%2522%2520style%253D%2522ellipse%253BwhiteSpace%253Dwrap%253Bhtml%253D1%253Balign%253Dcenter%253BfontStyle%253D4%253B%2522%2520vertex%253D%25221%2522%2520parent%253D%25221%2522%253E%253CmxGeometry%2520y%253D%252260%2522%2520width%253D%252260%2522%2520height%253D%252220%2522%2520as%253D%2522geometry%2522%252F%253E%253C%252FmxCell%253E%253C%252Froot%253E%253C%252FmxGraphModel%253E%26lt%3B%2Fspan%26gt%3B%22%20style%3D%22ellipse%3BwhiteSpace%3Dwrap%3Bhtml%3D1%3Balign%3Dcenter%3BfontStyle%3D4%3B%22%20vertex%3D%221%22%20parent%3D%221%22%3E%3CmxGeometry%20x%3D%22120%22%20y%3D%22110%22%20width%3D%2260%22%20height%3D%2220%22%20as%3D%22geometry%22%2F%3E%3C%2FmxCell%3E%3C%2Froot%3E%3C%2FmxGraphModel%3E&lt;/span&gt;" style="ellipse;whiteSpace=wrap;html=1;align=center;" vertex="1" parent="1">
          <mxGeometry x="460" y="100" width="70" height="30" as="geometry" />
        </mxCell>
        <mxCell id="P0WSRWI9Bc2csYWGWG9O-60" value="" style="endArrow=none;html=1;rounded=0;entryX=0.119;entryY=-0.014;entryDx=0;entryDy=0;entryPerimeter=0;exitX=0.5;exitY=1;exitDx=0;exitDy=0;" edge="1" parent="1" source="P0WSRWI9Bc2csYWGWG9O-57" target="P0WSRWI9Bc2csYWGWG9O-2">
          <mxGeometry relative="1" as="geometry">
            <mxPoint x="380" y="140" as="sourcePoint" />
            <mxPoint x="540" y="140" as="targetPoint" />
          </mxGeometry>
        </mxCell>
        <mxCell id="P0WSRWI9Bc2csYWGWG9O-61" value="" style="endArrow=none;html=1;rounded=0;entryX=0.397;entryY=0.003;entryDx=0;entryDy=0;entryPerimeter=0;exitX=0.469;exitY=1.061;exitDx=0;exitDy=0;exitPerimeter=0;" edge="1" parent="1" source="P0WSRWI9Bc2csYWGWG9O-58" target="P0WSRWI9Bc2csYWGWG9O-2">
          <mxGeometry relative="1" as="geometry">
            <mxPoint x="375" y="130" as="sourcePoint" />
            <mxPoint x="407" y="169" as="targetPoint" />
          </mxGeometry>
        </mxCell>
        <mxCell id="P0WSRWI9Bc2csYWGWG9O-62" value="" style="endArrow=none;html=1;rounded=0;entryX=0.5;entryY=0;entryDx=0;entryDy=0;exitX=0.419;exitY=1.004;exitDx=0;exitDy=0;exitPerimeter=0;" edge="1" parent="1" source="P0WSRWI9Bc2csYWGWG9O-59" target="P0WSRWI9Bc2csYWGWG9O-2">
          <mxGeometry relative="1" as="geometry">
            <mxPoint x="433" y="111" as="sourcePoint" />
            <mxPoint x="435" y="170" as="targetPoint" />
          </mxGeometry>
        </mxCell>
        <mxCell id="P0WSRWI9Bc2csYWGWG9O-63" value="subId&lt;span style=&quot;color: rgba(0, 0, 0, 0); font-family: monospace; font-size: 0px; text-align: start; text-wrap-mode: nowrap;&quot;&gt;%3CmxGraphModel%3E%3Croot%3E%3CmxCell%20id%3D%220%22%2F%3E%3CmxCell%20id%3D%221%22%20parent%3D%220%22%2F%3E%3CmxCell%20id%3D%222%22%20value%3D%22CrsId%22%20style%3D%22ellipse%3BwhiteSpace%3Dwrap%3Bhtml%3D1%3Balign%3Dcenter%3BfontStyle%3D4%3B%22%20vertex%3D%221%22%20parent%3D%221%22%3E%3CmxGeometry%20x%3D%22335%22%20y%3D%22100%22%20width%3D%2260%22%20height%3D%2220%22%20as%3D%22geometry%22%2F%3E%3C%2FmxCell%3E%3C%2Froot%3E%3C%2FmxGraphModel%3E&lt;/span&gt;" style="ellipse;whiteSpace=wrap;html=1;align=center;fontStyle=4;" vertex="1" parent="1">
          <mxGeometry x="310" y="420" width="50" height="20" as="geometry" />
        </mxCell>
        <mxCell id="P0WSRWI9Bc2csYWGWG9O-64" value="sub&lt;span style=&quot;color: rgba(0, 0, 0, 0); font-family: monospace; font-size: 0px; text-align: start; text-wrap-mode: nowrap;&quot;&gt;%3CmxGraphModel%3E%3Croot%3E%3CmxCell%20id%3D%220%22%2F%3E%3CmxCell%20id%3D%221%22%20parent%3D%220%22%2F%3E%3CmxCell%20id%3D%222%22%20value%3D%22CrsName%26lt%3Bspan%20style%3D%26quot%3Bcolor%3A%20rgba(0%2C%200%2C%200%2C%200)%3B%20font-family%3A%20monospace%3B%20font-size%3A%200px%3B%20text-align%3A%20start%3B%20text-wrap-mode%3A%20nowrap%3B%26quot%3B%26gt%3B%253CmxGraphModel%253E%253Croot%253E%253CmxCell%2520id%253D%25220%2522%252F%253E%253CmxCell%2520id%253D%25221%2522%2520parent%253D%25220%2522%252F%253E%253CmxCell%2520id%253D%25222%2522%2520value%253D%2522T_Email%2526lt%253Bspan%2520style%253D%2526quot%253Bcolor%253A%2520rgba(0%252C%25200%252C%25200%252C%25200)%253B%2520font-family%253A%2520monospace%253B%2520font-size%253A%25200px%253B%2520text-align%253A%2520start%253B%2520text-wrap-mode%253A%2520nowrap%253B%2526quot%253B%2526gt%253B%25253CmxGraphModel%25253E%25253Croot%25253E%25253CmxCell%252520id%25253D%2525220%252522%25252F%25253E%25253CmxCell%252520id%25253D%2525221%252522%252520parent%25253D%2525220%252522%25252F%25253E%25253CmxCell%252520id%25253D%2525222%252522%252520value%25253D%252522T_Name%252526lt%25253Bspan%252520style%25253D%252526quot%25253Bcolor%25253A%252520rgba(0%25252C%2525200%25252C%2525200%25252C%2525200)%25253B%252520font-family%25253A%252520monospace%25253B%252520font-size%25253A%2525200px%25253B%252520text-align%25253A%252520start%25253B%252520text-wrap-mode%25253A%252520nowrap%25253B%252526quot%25253B%252526gt%25253B%2525253CmxGraphModel%2525253E%2525253Croot%2525253E%2525253CmxCell%25252520id%2525253D%252525220%25252522%2525252F%2525253E%2525253CmxCell%25252520id%2525253D%252525221%25252522%25252520parent%2525253D%252525220%25252522%2525252F%2525253E%2525253CmxCell%25252520id%2525253D%252525222%25252522%25252520value%2525253D%25252522T_Id%25252522%25252520style%2525253D%25252522ellipse%2525253BwhiteSpace%2525253Dwrap%2525253Bhtml%2525253D1%2525253Balign%2525253Dcenter%2525253BfontStyle%2525253D4%2525253B%25252522%25252520vertex%2525253D%252525221%25252522%25252520parent%2525253D%252525221%25252522%2525253E%2525253CmxGeometry%25252520y%2525253D%2525252260%25252522%25252520width%2525253D%2525252260%25252522%25252520height%2525253D%2525252220%25252522%25252520as%2525253D%25252522geometry%25252522%2525252F%2525253E%2525253C%2525252FmxCell%2525253E%2525253C%2525252Froot%2525253E%2525253C%2525252FmxGraphModel%2525253E%252526lt%25253B%25252Fspan%252526gt%25253B%252522%252520style%25253D%252522ellipse%25253BwhiteSpace%25253Dwrap%25253Bhtml%25253D1%25253Balign%25253Dcenter%25253BfontStyle%25253D4%25253B%252522%252520vertex%25253D%2525221%252522%252520parent%25253D%2525221%252522%25253E%25253CmxGeometry%252520x%25253D%25252260%252522%252520y%25253D%25252280%252522%252520width%25253D%25252260%252522%252520height%25253D%25252220%252522%252520as%25253D%252522geometry%252522%25252F%25253E%25253C%25252FmxCell%25253E%25253C%25252Froot%25253E%25253C%25252FmxGraphModel%25253E%2526lt%253B%252Fspan%2526gt%253B%2526lt%253Bspan%2520style%253D%2526quot%253Bcolor%253A%2520rgba(0%252C%25200%252C%25200%252C%25200)%253B%2520font-family%253A%2520monospace%253B%2520font-size%253A%25200px%253B%2520text-align%253A%2520start%253B%2520text-wrap-mode%253A%2520nowrap%253B%2526quot%253B%2526gt%253B%25253CmxGraphModel%25253E%25253Croot%25253E%25253CmxCell%252520id%25253D%2525220%252522%25252F%25253E%25253CmxCell%252520id%25253D%2525221%252522%252520parent%25253D%2525220%252522%25252F%25253E%25253CmxCell%252520id%25253D%2525222%252522%252520value%25253D%252522T_Id%252522%252520style%25253D%252522ellipse%25253BwhiteSpace%25253Dwrap%25253Bhtml%25253D1%25253Balign%25253Dcenter%25253BfontStyle%25253D4%25253B%252522%252520vertex%25253D%2525221%252522%252520parent%25253D%2525221%252522%25253E%25253CmxGeometry%252520y%25253D%25252260%252522%252520width%25253D%25252260%252522%252520height%25253D%25252220%252522%252520as%25253D%252522geometry%252522%25252F%25253E%25253C%25252FmxCell%25253E%25253C%25252Froot%25253E%25253C%25252FmxGraphModel%25253E%2526lt%253B%252Fspan%2526gt%253B%2522%2520style%253D%2522ellipse%253BwhiteSpace%253Dwrap%253Bhtml%253D1%253Balign%253Dcenter%253BfontStyle%253D4%253B%2522%2520vertex%253D%25221%2522%2520parent%253D%25221%2522%253E%253CmxGeometry%2520x%253D%2522120%2522%2520y%253D%2522110%2522%2520width%253D%252260%2522%2520height%253D%252220%2522%2520as%253D%2522geometry%2522%252F%253E%253C%252FmxCell%253E%253C%252Froot%253E%253C%252FmxGraphModel%253E%26lt%3B%2Fspan%26gt%3B%22%20style%3D%22ellipse%3BwhiteSpace%3Dwrap%3Bhtml%3D1%3Balign%3Dcenter%3B%22%20vertex%3D%221%22%20parent%3D%221%22%3E%3CmxGeometry%20x%3D%22395%22%20y%3D%2280%22%20width%3D%2260%22%20height%3D%2220%22%20as%3D%22geometry%22%2F%3E%3C%2FmxCell%3E%3C%2Froot%3E%3C%2FmxGraphModel%3E&lt;/span&gt;Na&lt;span style=&quot;color: rgba(0, 0, 0, 0); font-family: monospace; font-size: 0px; text-align: start; text-wrap-mode: nowrap;&quot;&gt;%3CmxGraphModel%3E%3Croot%3E%3CmxCell%20id%3D%220%22%2F%3E%3CmxCell%20id%3D%221%22%20parent%3D%220%22%2F%3E%3CmxCell%20id%3D%222%22%20value%3D%22CrsName%26lt%3Bspan%20style%3D%26quot%3Bcolor%3A%20rgba(0%2C%200%2C%200%2C%200)%3B%20font-family%3A%20monospace%3B%20font-size%3A%200px%3B%20text-align%3A%20start%3B%20text-wrap-mode%3A%20nowrap%3B%26quot%3B%26gt%3B%253CmxGraphModel%253E%253Croot%253E%253CmxCell%2520id%253D%25220%2522%252F%253E%253CmxCell%2520id%253D%25221%2522%2520parent%253D%25220%2522%252F%253E%253CmxCell%2520id%253D%25222%2522%2520value%253D%2522T_Email%2526lt%253Bspan%2520style%253D%2526quot%253Bcolor%253A%2520rgba(0%252C%25200%252C%25200%252C%25200)%253B%2520font-family%253A%2520monospace%253B%2520font-size%253A%25200px%253B%2520text-align%253A%2520start%253B%2520text-wrap-mode%253A%2520nowrap%253B%2526quot%253B%2526gt%253B%25253CmxGraphModel%25253E%25253Croot%25253E%25253CmxCell%252520id%25253D%2525220%252522%25252F%25253E%25253CmxCell%252520id%25253D%2525221%252522%252520parent%25253D%2525220%252522%25252F%25253E%25253CmxCell%252520id%25253D%2525222%252522%252520value%25253D%252522T_Name%252526lt%25253Bspan%252520style%25253D%252526quot%25253Bcolor%25253A%252520rgba(0%25252C%2525200%25252C%2525200%25252C%2525200)%25253B%252520font-family%25253A%252520monospace%25253B%252520font-size%25253A%2525200px%25253B%252520text-align%25253A%252520start%25253B%252520text-wrap-mode%25253A%252520nowrap%25253B%252526quot%25253B%252526gt%25253B%2525253CmxGraphModel%2525253E%2525253Croot%2525253E%2525253CmxCell%25252520id%2525253D%252525220%25252522%2525252F%2525253E%2525253CmxCell%25252520id%2525253D%252525221%25252522%25252520parent%2525253D%252525220%25252522%2525252F%2525253E%2525253CmxCell%25252520id%2525253D%252525222%25252522%25252520value%2525253D%25252522T_Id%25252522%25252520style%2525253D%25252522ellipse%2525253BwhiteSpace%2525253Dwrap%2525253Bhtml%2525253D1%2525253Balign%2525253Dcenter%2525253BfontStyle%2525253D4%2525253B%25252522%25252520vertex%2525253D%252525221%25252522%25252520parent%2525253D%252525221%25252522%2525253E%2525253CmxGeometry%25252520y%2525253D%2525252260%25252522%25252520width%2525253D%2525252260%25252522%25252520height%2525253D%2525252220%25252522%25252520as%2525253D%25252522geometry%25252522%2525252F%2525253E%2525253C%2525252FmxCell%2525253E%2525253C%2525252Froot%2525253E%2525253C%2525252FmxGraphModel%2525253E%252526lt%25253B%25252Fspan%252526gt%25253B%252522%252520style%25253D%252522ellipse%25253BwhiteSpace%25253Dwrap%25253Bhtml%25253D1%25253Balign%25253Dcenter%25253BfontStyle%25253D4%25253B%252522%252520vertex%25253D%2525221%252522%252520parent%25253D%2525221%252522%25253E%25253CmxGeometry%252520x%25253D%25252260%252522%252520y%25253D%25252280%252522%252520width%25253D%25252260%252522%252520height%25253D%25252220%252522%252520as%25253D%252522geometry%252522%25252F%25253E%25253C%25252FmxCell%25253E%25253C%25252Froot%25253E%25253C%25252FmxGraphModel%25253E%2526lt%253B%252Fspan%2526gt%253B%2526lt%253Bspan%2520style%253D%2526quot%253Bcolor%253A%2520rgba(0%252C%25200%252C%25200%252C%25200)%253B%2520font-family%253A%2520monospace%253B%2520font-size%253A%25200px%253B%2520text-align%253A%2520start%253B%2520text-wrap-mode%253A%2520nowrap%253B%2526quot%253B%2526gt%253B%25253CmxGraphModel%25253E%25253Croot%25253E%25253CmxCell%252520id%25253D%2525220%252522%25252F%25253E%25253CmxCell%252520id%25253D%2525221%252522%252520parent%25253D%2525220%252522%25252F%25253E%25253CmxCell%252520id%25253D%2525222%252522%252520value%25253D%252522T_Id%252522%252520style%25253D%252522ellipse%25253BwhiteSpace%25253Dwrap%25253Bhtml%25253D1%25253Balign%25253Dcenter%25253BfontStyle%25253D4%25253B%252522%252520vertex%25253D%2525221%252522%252520parent%25253D%2525221%252522%25253E%25253CmxGeometry%252520y%25253D%25252260%252522%252520width%25253D%25252260%252522%252520height%25253D%25252220%252522%252520as%25253D%252522geometry%252522%25252F%25253E%25253C%25252FmxCell%25253E%25253C%25252Froot%25253E%25253C%25252FmxGraphModel%25253E%2526lt%253B%252Fspan%2526gt%253B%2522%2520style%253D%2522ellipse%253BwhiteSpace%253Dwrap%253Bhtml%253D1%253Balign%253Dcenter%253BfontStyle%253D4%253B%2522%2520vertex%253D%25221%2522%2520parent%253D%25221%2522%253E%253CmxGeometry%2520x%253D%2522120%2522%2520y%253D%2522110%2522%2520width%253D%252260%2522%2520height%253D%252220%2522%2520as%253D%2522geometry%2522%252F%253E%253C%252FmxCell%253E%253C%252Froot%253E%253C%252FmxGraphModel%253E%26lt%3B%2Fspan%26gt%3B%22%20style%3D%22ellipse%3BwhiteSpace%3Dwrap%3Bhtml%3D1%3Balign%3Dcenter%3B%22%20vertex%3D%221%22%20parent%3D%221%22%3E%3CmxGeometry%20x%3D%22395%22%20y%3D%2280%22%20width%3D%2260%22%20height%3D%2220%22%20as%3D%22geometry%22%2F%3E%3C%2FmxCell%3E%3C%2Froot%3E%3C%2FmxGraphModel%3E&lt;/span&gt;me&lt;span style=&quot;color: rgba(0, 0, 0, 0); font-family: monospace; font-size: 0px; text-align: start; text-wrap-mode: nowrap;&quot;&gt;%3CmxGraphModel%3E%3Croot%3E%3CmxCell%20id%3D%220%22%2F%3E%3CmxCell%20id%3D%221%22%20parent%3D%220%22%2F%3E%3CmxCell%20id%3D%222%22%20value%3D%22T_Email%26lt%3Bspan%20style%3D%26quot%3Bcolor%3A%20rgba(0%2C%200%2C%200%2C%200)%3B%20font-family%3A%20monospace%3B%20font-size%3A%200px%3B%20text-align%3A%20start%3B%20text-wrap-mode%3A%20nowrap%3B%26quot%3B%26gt%3B%253CmxGraphModel%253E%253Croot%253E%253CmxCell%2520id%253D%25220%2522%252F%253E%253CmxCell%2520id%253D%25221%2522%2520parent%253D%25220%2522%252F%253E%253CmxCell%2520id%253D%25222%2522%2520value%253D%2522T_Name%2526lt%253Bspan%2520style%253D%2526quot%253Bcolor%253A%2520rgba(0%252C%25200%252C%25200%252C%25200)%253B%2520font-family%253A%2520monospace%253B%2520font-size%253A%25200px%253B%2520text-align%253A%2520start%253B%2520text-wrap-mode%253A%2520nowrap%253B%2526quot%253B%2526gt%253B%25253CmxGraphModel%25253E%25253Croot%25253E%25253CmxCell%252520id%25253D%2525220%252522%25252F%25253E%25253CmxCell%252520id%25253D%2525221%252522%252520parent%25253D%2525220%252522%25252F%25253E%25253CmxCell%252520id%25253D%2525222%252522%252520value%25253D%252522T_Id%252522%252520style%25253D%252522ellipse%25253BwhiteSpace%25253Dwrap%25253Bhtml%25253D1%25253Balign%25253Dcenter%25253BfontStyle%25253D4%25253B%252522%252520vertex%25253D%2525221%252522%252520parent%25253D%2525221%252522%25253E%25253CmxGeometry%252520y%25253D%25252260%252522%252520width%25253D%25252260%252522%252520height%25253D%25252220%252522%252520as%25253D%252522geometry%252522%25252F%25253E%25253C%25252FmxCell%25253E%25253C%25252Froot%25253E%25253C%25252FmxGraphModel%25253E%2526lt%253B%252Fspan%2526gt%253B%2522%2520style%253D%2522ellipse%253BwhiteSpace%253Dwrap%253Bhtml%253D1%253Balign%253Dcenter%253BfontStyle%253D4%253B%2522%2520vertex%253D%25221%2522%2520parent%253D%25221%2522%253E%253CmxGeometry%2520x%253D%252260%2522%2520y%253D%252280%2522%2520width%253D%252260%2522%2520height%253D%252220%2522%2520as%253D%2522geometry%2522%252F%253E%253C%252FmxCell%253E%253C%252Froot%253E%253C%252FmxGraphModel%253E%26lt%3B%2Fspan%26gt%3B%26lt%3Bspan%20style%3D%26quot%3Bcolor%3A%20rgba(0%2C%200%2C%200%2C%200)%3B%20font-family%3A%20monospace%3B%20font-size%3A%200px%3B%20text-align%3A%20start%3B%20text-wrap-mode%3A%20nowrap%3B%26quot%3B%26gt%3B%253CmxGraphModel%253E%253Croot%253E%253CmxCell%2520id%253D%25220%2522%252F%253E%253CmxCell%2520id%253D%25221%2522%2520parent%253D%25220%2522%252F%253E%253CmxCell%2520id%253D%25222%2522%2520value%253D%2522T_Id%2522%2520style%253D%2522ellipse%253BwhiteSpace%253Dwrap%253Bhtml%253D1%253Balign%253Dcenter%253BfontStyle%253D4%253B%2522%2520vertex%253D%25221%2522%2520parent%253D%25221%2522%253E%253CmxGeometry%2520y%253D%252260%2522%2520width%253D%252260%2522%2520height%253D%252220%2522%2520as%253D%2522geometry%2522%252F%253E%253C%252FmxCell%253E%253C%252Froot%253E%253C%252FmxGraphModel%253E%26lt%3B%2Fspan%26gt%3B%22%20style%3D%22ellipse%3BwhiteSpace%3Dwrap%3Bhtml%3D1%3Balign%3Dcenter%3BfontStyle%3D4%3B%22%20vertex%3D%221%22%20parent%3D%221%22%3E%3CmxGeometry%20x%3D%22120%22%20y%3D%22110%22%20width%3D%2260%22%20height%3D%2220%22%20as%3D%22geometry%22%2F%3E%3C%2FmxCell%3E%3C%2Froot%3E%3C%2FmxGraphModel%3E&lt;/span&gt;" style="ellipse;whiteSpace=wrap;html=1;align=center;" vertex="1" parent="1">
          <mxGeometry x="400" y="430" width="60" height="20" as="geometry" />
        </mxCell>
        <mxCell id="P0WSRWI9Bc2csYWGWG9O-67" value="subId&lt;span style=&quot;color: rgba(0, 0, 0, 0); font-family: monospace; font-size: 0px; text-align: start; text-wrap-mode: nowrap;&quot;&gt;%3CmxGraphModel%3E%3Croot%3E%3CmxCell%20id%3D%220%22%2F%3E%3CmxCell%20id%3D%221%22%20parent%3D%220%22%2F%3E%3CmxCell%20id%3D%222%22%20value%3D%22CrsId%22%20style%3D%22ellipse%3BwhiteSpace%3Dwrap%3Bhtml%3D1%3Balign%3Dcenter%3BfontStyle%3D4%3B%22%20vertex%3D%221%22%20parent%3D%221%22%3E%3CmxGeometry%20x%3D%22335%22%20y%3D%22100%22%20width%3D%2260%22%20height%3D%2220%22%20as%3D%22geometry%22%2F%3E%3C%2FmxCell%3E%3C%2Froot%3E%3C%2FmxGraphModel%3E&lt;/span&gt;" style="ellipse;whiteSpace=wrap;html=1;align=center;fontStyle=4;" vertex="1" parent="1">
          <mxGeometry x="660" y="430" width="50" height="20" as="geometry" />
        </mxCell>
        <mxCell id="P0WSRWI9Bc2csYWGWG9O-69" value="&lt;div style=&quot;text-align: center;&quot;&gt;&lt;span style=&quot;background-color: initial; text-align: start;&quot;&gt;exam&lt;/span&gt;&lt;span style=&quot;background-color: initial; text-wrap-mode: nowrap; color: rgba(0, 0, 0, 0); font-family: monospace; font-size: 0px; text-align: start;&quot;&gt;3CmxGraphModel%3E%3Croot%3E%3CmxCell%20id%3D%220%22%2F%3E%3CmxCell%20id%3D%221%22%20parent%3D%220%22%2F%3E%3CmxCell%20id%3D%222%22%20value%3D%22CrsName%26lt%3Bspan%20style%3D%26quot%3Bcolor%3A%20rgba(0%2C%200%2C%200%2C%200)%3B%20font-family%3A%20monospace%3B%20font-size%3A%200px%3B%20text-align%3A%20start%3B%20text-wrap-mode%3A%20nowrap%3B%26quot%3B%26gt%3B%253CmxGraphModel%253E%253Croot%253E%253CmxCell%2520id%253D%25220%2522%252F%253E%253CmxCell%2520id%253D%25221%2522%2520parent%253D%25220%2522%252F%253E%253CmxCell%2520id%253D%25222%2522%2520value%253D%2522T_Email%2526lt%253Bspan%2520style%253D%2526quot%253Bcolor%253A%2520rgba(0%252C%25200%252C%25200%252C%25200)%253B%2520font-family%253A%2520monospace%253B%2520font-size%253A%25200px%253B%2520text-align%253A%2520start%253B%2520text-wrap-mode%253A%2520nowrap%253B%2526quot%253B%2526gt%253B%25253CmxGraphModel%25253E%25253Croot%25253E%25253CmxCell%252520id%25253D%2525220%252522%25252F%25253E%25253CmxCell%252520id%25253D%2525221%252522%252520parent%25253D%2525220%252522%25252F%25253E%25253CmxCell%252520id%25253D%2525222%252522%252520value%25253D%252522T_Name%252526lt%25253Bspan%252520style%25253D%252526quot%25253Bcolor%25253A%252520rgba(0%25252C%2525200%25252C%2525200%25252C%2525200)%25253B%252520font-family%25253A%252520monospace%25253B%252520font-size%25253A%2525200px%25253B%252520text-align%25253A%252520start%25253B%252520text-wrap-mode%25253A%252520nowrap%25253B%252526quot%25253B%252526gt%25253B%2525253CmxGraphModel%2525253E%2525253Croot%2525253E%2525253CmxCell%25252520id%2525253D%252525220%25252522%2525252F%2525253E%2525253CmxCell%25252520id%2525253D%252525221%25252522%25252520parent%2525253D%252525220%25252522%2525252F%2525253E%2525253CmxCell%25252520id%2525253D%252525222%25252522%25252520value%2525253D%25252522T_Id%25252522%25252520style%2525253D%25252522ellipse%2525253BwhiteSpace%2525253Dwrap%2525253Bhtml%2525253D1%2525253Balign%2525253Dcenter%2525253BfontStyle%2525253D4%2525253B%25252522%25252520vertex%2525253D%252525221%25252522%25252520parent%2525253D%252525221%25252522%2525253E%2525253CmxGeometry%25252520y%2525253D%2525252260%25252522%25252520width%2525253D%2525252260%25252522%25252520height%2525253D%2525252220%25252522%25252520as%2525253D%25252522geometry%25252522%2525252F%2525253E%2525253C%2525252FmxCell%2525253E%2525253C%2525252Froot%2525253E%2525253C%2525252FmxGraphModel%2525253E%252526lt%25253B%25252Fspan%252526gt%25253B%252522%252520style%25253D%252522ellipse%25253BwhiteSpace%25253Dwrap%25253Bhtml%25253D1%25253Balign%25253Dcenter%25253BfontStyle%25253D4%25253B%252522%252520vertex%25253D%2525221%252522%252520parent%25253D%2525221%252522%25253E%25253CmxGeometry%252520x%25253D%25252260%252522%252520y%25253D%25252280%252522%252520width%25253D%25252260%252522%252520height%25253D%25252220%252522%252520as%25253D%252522geometry%252522%25252F%25253E%25253C%25252FmxCell%25253E%25253C%25252Froot%25253E%25253C%25252FmxGraphModel%25253E%2526lt%253B%252Fspan%2526gt%253B%2526lt%253Bspan%2520style%253D%2526quot%253Bcolor%253A%2520rgba(0%252C%25200%252C%25200%252C%25200)%253B%2520font-family%253A%2520monospace%253B%2520font-size%253A%25200px%253B%2520text-align%253A%2520start%253B%2520text-wrap-mode%253A%2520nowrap%253B%2526quot%253B%2526gt%253B%25253CmxGraphModel%25253E%25253Croot%25253E%25253CmxCell%252520id%25253D%2525220%252522%25252F%25253E%25253CmxCell%252520id%25253D%2525221%252522%252520parent%25253D%2525220%252522%25252F%25253E%25253CmxCell%252520id%25253D%2525222%252522%252520value%25253D%252522T_Id%252522%252520style%25253D%252522ellipse%25253BwhiteSpace%25253Dwrap%25253Bhtml%25253D1%25253Balign%25253Dcenter%25253BfontStyle%25253D4%25253B%252522%252520vertex%25253D%2525221%252522%252520parent%25253D%2525221%252522%25253E%25253CmxGeometry%252520y%25253D%25252260%252522%252520width%25253D%25252260%252522%252520height%25253D%25252220%252522%252520as%25253D%252522geometry%252522%25252F%25253E%25253C%25252FmxCell%25253E%25253C%25252Froot%25253E%25253C%25252FmxGraphModel%25253E%2526lt%253B%252Fspan%2526gt%253B%2522%2520style%253D%2522ellipse%253BwhiteSpace%253Dwrap%253Bhtml%253D1%253Balign%253Dcenter%253BfontStyle%253D4%253B%2522%2520vertex%253D%25221%2522%2520parent%253D%25221%2522%253E%253CmxGeometry%2520x%253D%2522120%2522%2520y%253D%2522110%2522%2520width%253D%252260%2522%2520height%253D%252220%2522%2520as%253D%2522geometry%2522%252F%253E%253C%252FmxCell%253E%253C%252Froot%253E%253C%252FmxGraphModel%253E%26lt%3B%2Fspan%26gt%3B%22%20style%3D%22ellipse%3BwhiteSpace%3Dwrap%3Bhtml%3D1%3Balign%3Dcenter%3B%22%20vertex%3D%221%22%20parent%3D%221%22%3E%3CmxGeometry%20x%3D%22395%22%20y%3D%2280%22%20width%3D%2260%22%20height%3D%2220%22%20as%3D%22geometry%22%2F%3E%3C%2FmxCell%3E%3C%2Froot%3E%3C%2FmxGraphModel%3E&lt;/span&gt;&lt;span style=&quot;background-color: initial;&quot;&gt;Na&lt;/span&gt;&lt;span style=&quot;background-color: initial; text-wrap-mode: nowrap; color: rgba(0, 0, 0, 0); font-family: monospace; font-size: 0px; text-align: start;&quot;&gt;%3CmxGraphModel%3E%3Croot%3E%3CmxCell%20id%3D%220%22%2F%3E%3CmxCell%20id%3D%221%22%20parent%3D%220%22%2F%3E%3CmxCell%20id%3D%222%22%20value%3D%22CrsName%26lt%3Bspan%20style%3D%26quot%3Bcolor%3A%20rgba(0%2C%200%2C%200%2C%200)%3B%20font-family%3A%20monospace%3B%20font-size%3A%200px%3B%20text-align%3A%20start%3B%20text-wrap-mode%3A%20nowrap%3B%26quot%3B%26gt%3B%253CmxGraphModel%253E%253Croot%253E%253CmxCell%2520id%253D%25220%2522%252F%253E%253CmxCell%2520id%253D%25221%2522%2520parent%253D%25220%2522%252F%253E%253CmxCell%2520id%253D%25222%2522%2520value%253D%2522T_Email%2526lt%253Bspan%2520style%253D%2526quot%253Bcolor%253A%2520rgba(0%252C%25200%252C%25200%252C%25200)%253B%2520font-family%253A%2520monospace%253B%2520font-size%253A%25200px%253B%2520text-align%253A%2520start%253B%2520text-wrap-mode%253A%2520nowrap%253B%2526quot%253B%2526gt%253B%25253CmxGraphModel%25253E%25253Croot%25253E%25253CmxCell%252520id%25253D%2525220%252522%25252F%25253E%25253CmxCell%252520id%25253D%2525221%252522%252520parent%25253D%2525220%252522%25252F%25253E%25253CmxCell%252520id%25253D%2525222%252522%252520value%25253D%252522T_Name%252526lt%25253Bspan%252520style%25253D%252526quot%25253Bcolor%25253A%252520rgba(0%25252C%2525200%25252C%2525200%25252C%2525200)%25253B%252520font-family%25253A%252520monospace%25253B%252520font-size%25253A%2525200px%25253B%252520text-align%25253A%252520start%25253B%252520text-wrap-mode%25253A%252520nowrap%25253B%252526quot%25253B%252526gt%25253B%2525253CmxGraphModel%2525253E%2525253Croot%2525253E%2525253CmxCell%25252520id%2525253D%252525220%25252522%2525252F%2525253E%2525253CmxCell%25252520id%2525253D%252525221%25252522%25252520parent%2525253D%252525220%25252522%2525252F%2525253E%2525253CmxCell%25252520id%2525253D%252525222%25252522%25252520value%2525253D%25252522T_Id%25252522%25252520style%2525253D%25252522ellipse%2525253BwhiteSpace%2525253Dwrap%2525253Bhtml%2525253D1%2525253Balign%2525253Dcenter%2525253BfontStyle%2525253D4%2525253B%25252522%25252520vertex%2525253D%252525221%25252522%25252520parent%2525253D%252525221%25252522%2525253E%2525253CmxGeometry%25252520y%2525253D%2525252260%25252522%25252520width%2525253D%2525252260%25252522%25252520height%2525253D%2525252220%25252522%25252520as%2525253D%25252522geometry%25252522%2525252F%2525253E%2525253C%2525252FmxCell%2525253E%2525253C%2525252Froot%2525253E%2525253C%2525252FmxGraphModel%2525253E%252526lt%25253B%25252Fspan%252526gt%25253B%252522%252520style%25253D%252522ellipse%25253BwhiteSpace%25253Dwrap%25253Bhtml%25253D1%25253Balign%25253Dcenter%25253BfontStyle%25253D4%25253B%252522%252520vertex%25253D%2525221%252522%252520parent%25253D%2525221%252522%25253E%25253CmxGeometry%252520x%25253D%25252260%252522%252520y%25253D%25252280%252522%252520width%25253D%25252260%252522%252520height%25253D%25252220%252522%252520as%25253D%252522geometry%252522%25252F%25253E%25253C%25252FmxCell%25253E%25253C%25252Froot%25253E%25253C%25252FmxGraphModel%25253E%2526lt%253B%252Fspan%2526gt%253B%2526lt%253Bspan%2520style%253D%2526quot%253Bcolor%253A%2520rgba(0%252C%25200%252C%25200%252C%25200)%253B%2520font-family%253A%2520monospace%253B%2520font-size%253A%25200px%253B%2520text-align%253A%2520start%253B%2520text-wrap-mode%253A%2520nowrap%253B%2526quot%253B%2526gt%253B%25253CmxGraphModel%25253E%25253Croot%25253E%25253CmxCell%252520id%25253D%2525220%252522%25252F%25253E%25253CmxCell%252520id%25253D%2525221%252522%252520parent%25253D%2525220%252522%25252F%25253E%25253CmxCell%252520id%25253D%2525222%252522%252520value%25253D%252522T_Id%252522%252520style%25253D%252522ellipse%25253BwhiteSpace%25253Dwrap%25253Bhtml%25253D1%25253Balign%25253Dcenter%25253BfontStyle%25253D4%25253B%252522%252520vertex%25253D%2525221%252522%252520parent%25253D%2525221%252522%25253E%25253CmxGeometry%252520y%25253D%25252260%252522%252520width%25253D%25252260%252522%252520height%25253D%25252220%252522%252520as%25253D%252522geometry%252522%25252F%25253E%25253C%25252FmxCell%25253E%25253C%25252Froot%25253E%25253C%25252FmxGraphModel%25253E%2526lt%253B%252Fspan%2526gt%253B%2522%2520style%253D%2522ellipse%253BwhiteSpace%253Dwrap%253Bhtml%253D1%253Balign%253Dcenter%253BfontStyle%253D4%253B%2522%2520vertex%253D%25221%2522%2520parent%253D%25221%2522%253E%253CmxGeometry%2520x%253D%2522120%2522%2520y%253D%2522110%2522%2520width%253D%252260%2522%2520height%253D%252220%2522%2520as%253D%2522geometry%2522%252F%253E%253C%252FmxCell%253E%253C%252Froot%253E%253C%252FmxGraphModel%253E%26lt%3B%2Fspan%26gt%3B%22%20style%3D%22ellipse%3BwhiteSpace%3Dwrap%3Bhtml%3D1%3Balign%3Dcenter%3B%22%20vertex%3D%221%22%20parent%3D%221%22%3E%3CmxGeometry%20x%3D%22395%22%20y%3D%2280%22%20width%3D%2260%22%20height%3D%2220%22%20as%3D%22geometry%22%2F%3E%3C%2FmxCell%3E%3C%2Froot%3E%3C%2FmxGraphModel%3E&lt;/span&gt;&lt;span style=&quot;background-color: initial;&quot;&gt;me&lt;/span&gt;&lt;span style=&quot;background-color: initial; text-wrap-mode: nowrap; color: rgba(0, 0, 0, 0); font-family: monospace; font-size: 0px; text-align: start;&quot;&gt;%3CmxGraphModel%3E%3Croot%3E%3CmxCell%20id%3D%220%22%2F%3E%3CmxCell%20id%3D%221%22%20parent%3D%220%22%2F%3E%3CmxCell%20id%3D%222%22%20value%3D%22T_Email%26lt%3Bspan%20style%3D%26quot%3Bcolor%3A%20rgba(0%2C%200%2C%200%2C%200)%3B%20font-family%3A%20monospace%3B%20font-size%3A%200px%3B%20text-align%3A%20start%3B%20text-wrap-mode%3A%20nowrap%3B%26quot%3B%26gt%3B%253CmxGraphModel%253E%253Croot%253E%253CmxCell%2520id%253D%25220%2522%252F%253E%253CmxCell%2520id%253D%25221%2522%2520parent%253D%25220%2522%252F%253E%253CmxCell%2520id%253D%25222%2522%2520value%253D%2522T_Name%2526lt%253Bspan%2520style%253D%2526quot%253Bcolor%253A%2520rgba(0%252C%25200%252C%25200%252C%25200)%253B%2520font-family%253A%2520monospace%253B%2520font-size%253A%25200px%253B%2520text-align%253A%2520start%253B%2520text-wrap-mode%253A%2520nowrap%253B%2526quot%253B%2526gt%253B%25253CmxGraphModel%25253E%25253Croot%25253E%25253CmxCell%252520id%25253D%2525220%252522%25252F%25253E%25253CmxCell%252520id%25253D%2525221%252522%252520parent%25253D%2525220%252522%25252F%25253E%25253CmxCell%252520id%25253D%2525222%252522%252520value%25253D%252522T_Id%252522%252520style%25253D%252522ellipse%25253BwhiteSpace%25253Dwrap%25253Bhtml%25253D1%25253Balign%25253Dcenter%25253BfontStyle%25253D4%25253B%252522%252520vertex%25253D%2525221%252522%252520parent%25253D%2525221%252522%25253E%25253CmxGeometry%252520y%25253D%25252260%252522%252520width%25253D%25252260%252522%252520height%25253D%25252220%252522%252520as%25253D%252522geometry%252522%25252F%25253E%25253C%25252FmxCell%25253E%25253C%25252Froot%25253E%25253C%25252FmxGraphModel%25253E%2526lt%253B%252Fspan%2526gt%253B%2522%2520style%253D%2522ellipse%253BwhiteSpace%253Dwrap%253Bhtml%253D1%253Balign%253Dcenter%253BfontStyle%253D4%253B%2522%2520vertex%253D%25221%2522%2520parent%253D%25221%2522%253E%253CmxGeometry%2520x%253D%252260%2522%2520y%253D%252280%2522%2520width%253D%252260%2522%2520height%253D%252220%2522%2520as%253D%2522geometry%2522%252F%253E%253C%252FmxCell%253E%253C%252Froot%253E%253C%252FmxGraphModel%253E%26lt%3B%2Fspan%26gt%3B%26lt%3Bspan%20style%3D%26quot%3Bcolor%3A%20rgba(0%2C%200%2C%200%2C%200)%3B%20font-family%3A%20monospace%3B%20font-size%3A%200px%3B%20text-align%3A%20start%3B%20text-wrap-mode%3A%20nowrap%3B%26quot%3B%26gt%3B%253CmxGraphModel%253E%253Croot%253E%253CmxCell%2520id%253D%25220%2522%252F%253E%253CmxCell%2520id%253D%25221%2522%2520parent%253D%25220%2522%252F%253E%253CmxCell%2520id%253D%25222%2522%2520value%253D%2522T_Id%2522%2520style%253D%2522ellipse%253BwhiteSpace%253Dwrap%253Bhtml%253D1%253Balign%253Dcenter%253BfontStyle%253D4%253B%2522%2520vertex%253D%25221%2522%2520parent%253D%25221%2522%253E%253CmxGeometry%2520y%253D%252260%2522%2520width%253D%252260%2522%2520height%253D%252220%2522%2520as%253D%2522geometry%2522%252F%253E%253C%252FmxCell%253E%253C%252Froot%253E%253C%252FmxGraphModel%253E%26lt%3B%2Fspan%26gt%3B%22%20style%3D%22ellipse%3BwhiteSpace%3Dwrap%3Bhtml%3D1%3Balign%3Dcenter%3BfontStyle%3D4%3B%22%20vertex%3D%221%22%20parent%3D%221%22%3E%3CmxGeometry%20x%3D%22120%22%20y%3D%22110%22%20width%3D%2260%22%20height%3D%2220%22%20as%3D%22geometry%22%2F%3E%3C%2FmxCell%3E%3C%2Froot%3E%3C%2FmxGraphModel%3E&lt;/span&gt;&lt;/div&gt;" style="ellipse;whiteSpace=wrap;html=1;align=center;" vertex="1" parent="1">
          <mxGeometry x="730" y="470" width="60" height="20" as="geometry" />
        </mxCell>
        <mxCell id="P0WSRWI9Bc2csYWGWG9O-70" value="&lt;div style=&quot;text-align: center;&quot;&gt;&lt;span style=&quot;background-color: initial; text-align: start;&quot;&gt;examDate&lt;/span&gt;&lt;span style=&quot;color: rgba(0, 0, 0, 0); font-family: monospace; font-size: 0px; text-align: start; text-wrap-mode: nowrap; background-color: initial;&quot;&gt;%3CmxGraphModel%3E%3Croot%3E%3CmxCell%20id%3D%220%22%2F%3E%3CmxCell%20id%3D%221%22%20parent%3D%220%22%2F%3E%3CmxCell%20id%3D%222%22%20value%3D%22%26lt%3Bdiv%20style%3D%26quot%3Btext-align%3A%20center%3B%26quot%3B%26gt%3B%26lt%3Bspan%20style%3D%26quot%3Bbackground-color%3A%20initial%3B%20text-align%3A%20start%3B%26quot%3B%26gt%3Bexam%26lt%3B%2Fspan%26gt%3B%26lt%3Bspan%20style%3D%26quot%3Bbackground-color%3A%20initial%3B%20text-wrap-mode%3A%20nowrap%3B%20color%3A%20rgba(0%2C%200%2C%200%2C%200)%3B%20font-family%3A%20monospace%3B%20font-size%3A%200px%3B%20text-align%3A%20start%3B%26quot%3B%26gt%3B3CmxGraphModel%253E%253Croot%253E%253CmxCell%2520id%253D%25220%2522%252F%253E%253CmxCell%2520id%253D%25221%2522%2520parent%253D%25220%2522%252F%253E%253CmxCell%2520id%253D%25222%2522%2520value%253D%2522CrsName%2526lt%253Bspan%2520style%253D%2526quot%253Bcolor%253A%2520rgba(0%252C%25200%252C%25200%252C%25200)%253B%2520font-family%253A%2520monospace%253B%2520font-size%253A%25200px%253B%2520text-align%253A%2520start%253B%2520text-wrap-mode%253A%2520nowrap%253B%2526quot%253B%2526gt%253B%25253CmxGraphModel%25253E%25253Croot%25253E%25253CmxCell%252520id%25253D%2525220%252522%25252F%25253E%25253CmxCell%252520id%25253D%2525221%252522%252520parent%25253D%2525220%252522%25252F%25253E%25253CmxCell%252520id%25253D%2525222%252522%252520value%25253D%252522T_Email%252526lt%25253Bspan%252520style%25253D%252526quot%25253Bcolor%25253A%252520rgba(0%25252C%2525200%25252C%2525200%25252C%2525200)%25253B%252520font-family%25253A%252520monospace%25253B%252520font-size%25253A%2525200px%25253B%252520text-align%25253A%252520start%25253B%252520text-wrap-mode%25253A%252520nowrap%25253B%252526quot%25253B%252526gt%25253B%2525253CmxGraphModel%2525253E%2525253Croot%2525253E%2525253CmxCell%25252520id%2525253D%252525220%25252522%2525252F%2525253E%2525253CmxCell%25252520id%2525253D%252525221%25252522%25252520parent%2525253D%252525220%25252522%2525252F%2525253E%2525253CmxCell%25252520id%2525253D%252525222%25252522%25252520value%2525253D%25252522T_Name%25252526lt%2525253Bspan%25252520style%2525253D%25252526quot%2525253Bcolor%2525253A%25252520rgba(0%2525252C%252525200%2525252C%252525200%2525252C%252525200)%2525253B%25252520font-family%2525253A%25252520monospace%2525253B%25252520font-size%2525253A%252525200px%2525253B%25252520text-align%2525253A%25252520start%2525253B%25252520text-wrap-mode%2525253A%25252520nowrap%2525253B%25252526quot%2525253B%25252526gt%2525253B%252525253CmxGraphModel%252525253E%252525253Croot%252525253E%252525253CmxCell%2525252520id%252525253D%25252525220%2525252522%252525252F%252525253E%252525253CmxCell%2525252520id%252525253D%25252525221%2525252522%2525252520parent%252525253D%25252525220%2525252522%252525252F%252525253E%252525253CmxCell%2525252520id%252525253D%25252525222%2525252522%2525252520value%252525253D%2525252522T_Id%2525252522%2525252520style%252525253D%2525252522ellipse%252525253BwhiteSpace%252525253Dwrap%252525253Bhtml%252525253D1%252525253Balign%252525253Dcenter%252525253BfontStyle%252525253D4%252525253B%2525252522%2525252520vertex%252525253D%25252525221%2525252522%2525252520parent%252525253D%25252525221%2525252522%252525253E%252525253CmxGeometry%2525252520y%252525253D%252525252260%2525252522%2525252520width%252525253D%252525252260%2525252522%2525252520height%252525253D%252525252220%2525252522%2525252520as%252525253D%2525252522geometry%2525252522%252525252F%252525253E%252525253C%252525252FmxCell%252525253E%252525253C%252525252Froot%252525253E%252525253C%252525252FmxGraphModel%252525253E%25252526lt%2525253B%2525252Fspan%25252526gt%2525253B%25252522%25252520style%2525253D%25252522ellipse%2525253BwhiteSpace%2525253Dwrap%2525253Bhtml%2525253D1%2525253Balign%2525253Dcenter%2525253BfontStyle%2525253D4%2525253B%25252522%25252520vertex%2525253D%252525221%25252522%25252520parent%2525253D%252525221%25252522%2525253E%2525253CmxGeometry%25252520x%2525253D%2525252260%25252522%25252520y%2525253D%2525252280%25252522%25252520width%2525253D%2525252260%25252522%25252520height%2525253D%2525252220%25252522%25252520as%2525253D%25252522geometry%25252522%2525252F%2525253E%2525253C%2525252FmxCell%2525253E%2525253C%2525252Froot%2525253E%2525253C%2525252FmxGraphModel%2525253E%252526lt%25253B%25252Fspan%252526gt%25253B%252526lt%25253Bspan%252520style%25253D%252526quot%25253Bcolor%25253A%252520rgba(0%25252C%2525200%25252C%2525200%25252C%2525200)%25253B%252520font-family%25253A%252520monospace%25253B%252520font-size%25253A%2525200px%25253B%252520text-align%25253A%252520start%25253B%252520text-wrap-mode%25253A%252520nowrap%25253B%252526quot%25253B%252526gt%25253B%2525253CmxGraphModel%2525253E%2525253Croot%2525253E%2525253CmxCell%25252520id%2525253D%252525220%25252522%2525252F%2525253E%2525253CmxCell%25252520id%2525253D%252525221%25252522%25252520parent%2525253D%252525220%25252522%2525252F%2525253E%2525253CmxCell%25252520id%2525253D%252525222%25252522%25252520value%2525253D%25252522T_Id%25252522%25252520style%2525253D%25252522ellipse%2525253BwhiteSpace%2525253Dwrap%2525253Bhtml%2525253D1%2525253Balign%2525253Dcenter%2525253BfontStyle%2525253D4%2525253B%25252522%25252520vertex%2525253D%252525221%25252522%25252520parent%2525253D%252525221%25252522%2525253E%2525253CmxGeometry%25252520y%2525253D%2525252260%25252522%25252520width%2525253D%2525252260%25252522%25252520height%2525253D%2525252220%25252522%25252520as%2525253D%25252522geometry%25252522%2525252F%2525253E%2525253C%2525252FmxCell%2525253E%2525253C%2525252Froot%2525253E%2525253C%2525252FmxGraphModel%2525253E%252526lt%25253B%25252Fspan%252526gt%25253B%252522%252520style%25253D%252522ellipse%25253BwhiteSpace%25253Dwrap%25253Bhtml%25253D1%25253Balign%25253Dcenter%25253BfontStyle%25253D4%25253B%252522%252520vertex%25253D%2525221%252522%252520parent%25253D%2525221%252522%25253E%25253CmxGeometry%252520x%25253D%252522120%252522%252520y%25253D%252522110%252522%252520width%25253D%25252260%252522%252520height%25253D%25252220%252522%252520as%25253D%252522geometry%252522%25252F%25253E%25253C%25252FmxCell%25253E%25253C%25252Froot%25253E%25253C%25252FmxGraphModel%25253E%2526lt%253B%252Fspan%2526gt%253B%2522%2520style%253D%2522ellipse%253BwhiteSpace%253Dwrap%253Bhtml%253D1%253Balign%253Dcenter%253B%2522%2520vertex%253D%25221%2522%2520parent%253D%25221%2522%253E%253CmxGeometry%2520x%253D%2522395%2522%2520y%253D%252280%2522%2520width%253D%252260%2522%2520height%253D%252220%2522%2520as%253D%2522geometry%2522%252F%253E%253C%252FmxCell%253E%253C%252Froot%253E%253C%252FmxGraphModel%253E%26lt%3B%2Fspan%26gt%3B%26lt%3Bspan%20style%3D%26quot%3Bbackground-color%3A%20initial%3B%26quot%3B%26gt%3BNa%26lt%3B%2Fspan%26gt%3B%26lt%3Bspan%20style%3D%26quot%3Bbackground-color%3A%20initial%3B%20text-wrap-mode%3A%20nowrap%3B%20color%3A%20rgba(0%2C%200%2C%200%2C%200)%3B%20font-family%3A%20monospace%3B%20font-size%3A%200px%3B%20text-align%3A%20start%3B%26quot%3B%26gt%3B%253CmxGraphModel%253E%253Croot%253E%253CmxCell%2520id%253D%25220%2522%252F%253E%253CmxCell%2520id%253D%25221%2522%2520parent%253D%25220%2522%252F%253E%253CmxCell%2520id%253D%25222%2522%2520value%253D%2522CrsName%2526lt%253Bspan%2520style%253D%2526quot%253Bcolor%253A%2520rgba(0%252C%25200%252C%25200%252C%25200)%253B%2520font-family%253A%2520monospace%253B%2520font-size%253A%25200px%253B%2520text-align%253A%2520start%253B%2520text-wrap-mode%253A%2520nowrap%253B%2526quot%253B%2526gt%253B%25253CmxGraphModel%25253E%25253Croot%25253E%25253CmxCell%252520id%25253D%2525220%252522%25252F%25253E%25253CmxCell%252520id%25253D%2525221%252522%252520parent%25253D%2525220%252522%25252F%25253E%25253CmxCell%252520id%25253D%2525222%252522%252520value%25253D%252522T_Email%252526lt%25253Bspan%252520style%25253D%252526quot%25253Bcolor%25253A%252520rgba(0%25252C%2525200%25252C%2525200%25252C%2525200)%25253B%252520font-family%25253A%252520monospace%25253B%252520font-size%25253A%2525200px%25253B%252520text-align%25253A%252520start%25253B%252520text-wrap-mode%25253A%252520nowrap%25253B%252526quot%25253B%252526gt%25253B%2525253CmxGraphModel%2525253E%2525253Croot%2525253E%2525253CmxCell%25252520id%2525253D%252525220%25252522%2525252F%2525253E%2525253CmxCell%25252520id%2525253D%252525221%25252522%25252520parent%2525253D%252525220%25252522%2525252F%2525253E%2525253CmxCell%25252520id%2525253D%252525222%25252522%25252520value%2525253D%25252522T_Name%25252526lt%2525253Bspan%25252520style%2525253D%25252526quot%2525253Bcolor%2525253A%25252520rgba(0%2525252C%252525200%2525252C%252525200%2525252C%252525200)%2525253B%25252520font-family%2525253A%25252520monospace%2525253B%25252520font-size%2525253A%252525200px%2525253B%25252520text-align%2525253A%25252520start%2525253B%25252520text-wrap-mode%2525253A%25252520nowrap%2525253B%25252526quot%2525253B%25252526gt%2525253B%252525253CmxGraphModel%252525253E%252525253Croot%252525253E%252525253CmxCell%2525252520id%252525253D%25252525220%2525252522%252525252F%252525253E%252525253CmxCell%2525252520id%252525253D%25252525221%2525252522%2525252520parent%252525253D%25252525220%2525252522%252525252F%252525253E%252525253CmxCell%2525252520id%252525253D%25252525222%2525252522%2525252520value%252525253D%2525252522T_Id%2525252522%2525252520style%252525253D%2525252522ellipse%252525253BwhiteSpace%252525253Dwrap%252525253Bhtml%252525253D1%252525253Balign%252525253Dcenter%252525253BfontStyle%252525253D4%252525253B%2525252522%2525252520vertex%252525253D%25252525221%2525252522%2525252520parent%252525253D%25252525221%2525252522%252525253E%252525253CmxGeometry%2525252520y%252525253D%252525252260%2525252522%2525252520width%252525253D%252525252260%2525252522%2525252520height%252525253D%252525252220%2525252522%2525252520as%252525253D%2525252522geometry%2525252522%252525252F%252525253E%252525253C%252525252FmxCell%252525253E%252525253C%252525252Froot%252525253E%252525253C%252525252FmxGraphModel%252525253E%25252526lt%2525253B%2525252Fspan%25252526gt%2525253B%25252522%25252520style%2525253D%25252522ellipse%2525253BwhiteSpace%2525253Dwrap%2525253Bhtml%2525253D1%2525253Balign%2525253Dcenter%2525253BfontStyle%2525253D4%2525253B%25252522%25252520vertex%2525253D%252525221%25252522%25252520parent%2525253D%252525221%25252522%2525253E%2525253CmxGeometry%25252520x%2525253D%2525252260%25252522%25252520y%2525253D%2525252280%25252522%25252520width%2525253D%2525252260%25252522%25252520height%2525253D%2525252220%25252522%25252520as%2525253D%25252522geometry%25252522%2525252F%2525253E%2525253C%2525252FmxCell%2525253E%2525253C%2525252Froot%2525253E%2525253C%2525252FmxGraphModel%2525253E%252526lt%25253B%25252Fspan%252526gt%25253B%252526lt%25253Bspan%252520style%25253D%252526quot%25253Bcolor%25253A%252520rgba(0%25252C%2525200%25252C%2525200%25252C%2525200)%25253B%252520font-family%25253A%252520monospace%25253B%252520font-size%25253A%2525200px%25253B%252520text-align%25253A%252520start%25253B%252520text-wrap-mode%25253A%252520nowrap%25253B%252526quot%25253B%252526gt%25253B%2525253CmxGraphModel%2525253E%2525253Croot%2525253E%2525253CmxCell%25252520id%2525253D%252525220%25252522%2525252F%2525253E%2525253CmxCell%25252520id%2525253D%252525221%25252522%25252520parent%2525253D%252525220%25252522%2525252F%2525253E%2525253CmxCell%25252520id%2525253D%252525222%25252522%25252520value%2525253D%25252522T_Id%25252522%25252520style%2525253D%25252522ellipse%2525253BwhiteSpace%2525253Dwrap%2525253Bhtml%2525253D1%2525253Balign%2525253Dcenter%2525253BfontStyle%2525253D4%2525253B%25252522%25252520vertex%2525253D%252525221%25252522%25252520parent%2525253D%252525221%25252522%2525253E%2525253CmxGeometry%25252520y%2525253D%2525252260%25252522%25252520width%2525253D%2525252260%25252522%25252520height%2525253D%2525252220%25252522%25252520as%2525253D%25252522geometry%25252522%2525252F%2525253E%2525253C%2525252FmxCell%2525253E%2525253C%2525252Froot%2525253E%2525253C%2525252FmxGraphModel%2525253E%252526lt%25253B%25252Fspan%252526gt%25253B%252522%252520style%25253D%252522ellipse%25253BwhiteSpace%25253Dwrap%25253Bhtml%25253D1%25253Balign%25253Dcenter%25253BfontStyle%25253D4%25253B%252522%252520vertex%25253D%2525221%252522%252520parent%25253D%2525221%252522%25253E%25253CmxGeometry%252520x%25253D%252522120%252522%252520y%25253D%252522110%252522%252520width%25253D%25252260%252522%252520height%25253D%25252220%252522%252520as%25253D%252522geometry%252522%25252F%25253E%25253C%25252FmxCell%25253E%25253C%25252Froot%25253E%25253C%25252FmxGraphModel%25253E%2526lt%253B%252Fspan%2526gt%253B%2522%2520style%253D%2522ellipse%253BwhiteSpace%253Dwrap%253Bhtml%253D1%253Balign%253Dcenter%253B%2522%2520vertex%253D%25221%2522%2520parent%253D%25221%2522%253E%253CmxGeometry%2520x%253D%2522395%2522%2520y%253D%252280%2522%2520width%253D%252260%2522%2520height%253D%252220%2522%2520as%253D%2522geometry%2522%252F%253E%253C%252FmxCell%253E%253C%252Froot%253E%253C%252FmxGraphModel%253E%26lt%3B%2Fspan%26gt%3B%26lt%3Bspan%20style%3D%26quot%3Bbackground-color%3A%20initial%3B%26quot%3B%26gt%3Bme%26lt%3B%2Fspan%26gt%3B%26lt%3Bspan%20style%3D%26quot%3Bbackground-color%3A%20initial%3B%20text-wrap-mode%3A%20nowrap%3B%20color%3A%20rgba(0%2C%200%2C%200%2C%200)%3B%20font-family%3A%20monospace%3B%20font-size%3A%200px%3B%20text-align%3A%20start%3B%26quot%3B%26gt%3B%253CmxGraphModel%253E%253Croot%253E%253CmxCell%2520id%253D%25220%2522%252F%253E%253CmxCell%2520id%253D%25221%2522%2520parent%253D%25220%2522%252F%253E%253CmxCell%2520id%253D%25222%2522%2520value%253D%2522T_Email%2526lt%253Bspan%2520style%253D%2526quot%253Bcolor%253A%2520rgba(0%252C%25200%252C%25200%252C%25200)%253B%2520font-family%253A%2520monospace%253B%2520font-size%253A%25200px%253B%2520text-align%253A%2520start%253B%2520text-wrap-mode%253A%2520nowrap%253B%2526quot%253B%2526gt%253B%25253CmxGraphModel%25253E%25253Croot%25253E%25253CmxCell%252520id%25253D%2525220%252522%25252F%25253E%25253CmxCell%252520id%25253D%2525221%252522%252520parent%25253D%2525220%252522%25252F%25253E%25253CmxCell%252520id%25253D%2525222%252522%252520value%25253D%252522T_Name%252526lt%25253Bspan%252520style%25253D%252526quot%25253Bcolor%25253A%252520rgba(0%25252C%2525200%25252C%2525200%25252C%2525200)%25253B%252520font-family%25253A%252520monospace%25253B%252520font-size%25253A%2525200px%25253B%252520text-align%25253A%252520start%25253B%252520text-wrap-mode%25253A%252520nowrap%25253B%252526quot%25253B%252526gt%25253B%2525253CmxGraphModel%2525253E%2525253Croot%2525253E%2525253CmxCell%25252520id%2525253D%252525220%25252522%2525252F%2525253E%2525253CmxCell%25252520id%2525253D%252525221%25252522%25252520parent%2525253D%252525220%25252522%2525252F%2525253E%2525253CmxCell%25252520id%2525253D%252525222%25252522%25252520value%2525253D%25252522T_Id%25252522%25252520style%2525253D%25252522ellipse%2525253BwhiteSpace%2525253Dwrap%2525253Bhtml%2525253D1%2525253Balign%2525253Dcenter%2525253BfontStyle%2525253D4%2525253B%25252522%25252520vertex%2525253D%252525221%25252522%25252520parent%2525253D%252525221%25252522%2525253E%2525253CmxGeometry%25252520y%2525253D%2525252260%25252522%25252520width%2525253D%2525252260%25252522%25252520height%2525253D%2525252220%25252522%25252520as%2525253D%25252522geometry%25252522%2525252F%2525253E%2525253C%2525252FmxCell%2525253E%2525253C%2525252Froot%2525253E%2525253C%2525252FmxGraphModel%2525253E%252526lt%25253B%25252Fspan%252526gt%25253B%252522%252520style%25253D%252522ellipse%25253BwhiteSpace%25253Dwrap%25253Bhtml%25253D1%25253Balign%25253Dcenter%25253BfontStyle%25253D4%25253B%252522%252520vertex%25253D%2525221%252522%252520parent%25253D%2525221%252522%25253E%25253CmxGeometry%252520x%25253D%25252260%252522%252520y%25253D%25252280%252522%252520width%25253D%25252260%252522%252520height%25253D%25252220%252522%252520as%25253D%252522geometry%252522%25252F%25253E%25253C%25252FmxCell%25253E%25253C%25252Froot%25253E%25253C%25252FmxGraphModel%25253E%2526lt%253B%252Fspan%2526gt%253B%2526lt%253Bspan%2520style%253D%2526quot%253Bcolor%253A%2520rgba(0%252C%25200%252C%25200%252C%25200)%253B%2520font-family%253A%2520monospace%253B%2520font-size%253A%25200px%253B%2520text-align%253A%2520start%253B%2520text-wrap-mode%253A%2520nowrap%253B%2526quot%253B%2526gt%253B%25253CmxGraphModel%25253E%25253Croot%25253E%25253CmxCell%252520id%25253D%2525220%252522%25252F%25253E%25253CmxCell%252520id%25253D%2525221%252522%252520parent%25253D%2525220%252522%25252F%25253E%25253CmxCell%252520id%25253D%2525222%252522%252520value%25253D%252522T_Id%252522%252520style%25253D%252522ellipse%25253BwhiteSpace%25253Dwrap%25253Bhtml%25253D1%25253Balign%25253Dcenter%25253BfontStyle%25253D4%25253B%252522%252520vertex%25253D%2525221%252522%252520parent%25253D%2525221%252522%25253E%25253CmxGeometry%252520y%25253D%25252260%252522%252520width%25253D%25252260%252522%252520height%25253D%25252220%252522%252520as%25253D%252522geometry%252522%25252F%25253E%25253C%25252FmxCell%25253E%25253C%25252Froot%25253E%25253C%25252FmxGraphModel%25253E%2526lt%253B%252Fspan%2526gt%253B%2522%2520style%253D%2522ellipse%253BwhiteSpace%253Dwrap%253Bhtml%253D1%253Balign%253Dcenter%253BfontStyle%253D4%253B%2522%2520vertex%253D%25221%2522%2520parent%253D%25221%2522%253E%253CmxGeometry%2520x%253D%2522120%2522%2520y%253D%2522110%2522%2520width%253D%252260%2522%2520height%253D%252220%2522%2520as%253D%2522geometry%2522%252F%253E%253C%252FmxCell%253E%253C%252Froot%253E%253C%252FmxGraphModel%253E%26lt%3B%2Fspan%26gt%3B%26lt%3B%2Fdiv%26gt%3B%22%20style%3D%22ellipse%3BwhiteSpace%3Dwrap%3Bhtml%3D1%3Balign%3Dcenter%3B%22%20vertex%3D%221%22%20parent%3D%221%22%3E%3CmxGeometry%20x%3D%22770%22%20y%3D%22460%22%20width%3D%2260%22%20height%3D%2220%22%20as%3D%22geometry%22%2F%3E%3C%2FmxCell%3E%3C%2Froot%3E%3C%2FmxGraphModel%3E&lt;/span&gt;&lt;span style=&quot;background-color: initial; text-wrap-mode: nowrap; color: rgba(0, 0, 0, 0); font-family: monospace; font-size: 0px; text-align: start;&quot;&gt;3CmxGraphModel%3E%3Croot%3E%3CmxCell%20id%3D%220%22%2F%3E%3CmxCell%20id%3D%221%22%20parent%3D%220%22%2F%3E%3CmxCell%20id%3D%222%22%20value%3D%22CrsName%26lt%3Bspan%20style%3D%26quot%3Bcolor%3A%20rgba(0%2C%200%2C%200%2C%200)%3B%20font-family%3A%20monospace%3B%20font-size%3A%200px%3B%20text-align%3A%20start%3B%20text-wrap-mode%3A%20nowrap%3B%26quot%3B%26gt%3B%253CmxGraphModel%253E%253Croot%253E%253CmxCell%2520id%253D%25220%2522%252F%253E%253CmxCell%2520id%253D%25221%2522%2520parent%253D%25220%2522%252F%253E%253CmxCell%2520id%253D%25222%2522%2520value%253D%2522T_Email%2526lt%253Bspan%2520style%253D%2526quot%253Bcolor%253A%2520rgba(0%252C%25200%252C%25200%252C%25200)%253B%2520font-family%253A%2520monospace%253B%2520font-size%253A%25200px%253B%2520text-align%253A%2520start%253B%2520text-wrap-mode%253A%2520nowrap%253B%2526quot%253B%2526gt%253B%25253CmxGraphModel%25253E%25253Croot%25253E%25253CmxCell%252520id%25253D%2525220%252522%25252F%25253E%25253CmxCell%252520id%25253D%2525221%252522%252520parent%25253D%2525220%252522%25252F%25253E%25253CmxCell%252520id%25253D%2525222%252522%252520value%25253D%252522T_Name%252526lt%25253Bspan%252520style%25253D%252526quot%25253Bcolor%25253A%252520rgba(0%25252C%2525200%25252C%2525200%25252C%2525200)%25253B%252520font-family%25253A%252520monospace%25253B%252520font-size%25253A%2525200px%25253B%252520text-align%25253A%252520start%25253B%252520text-wrap-mode%25253A%252520nowrap%25253B%252526quot%25253B%252526gt%25253B%2525253CmxGraphModel%2525253E%2525253Croot%2525253E%2525253CmxCell%25252520id%2525253D%252525220%25252522%2525252F%2525253E%2525253CmxCell%25252520id%2525253D%252525221%25252522%25252520parent%2525253D%252525220%25252522%2525252F%2525253E%2525253CmxCell%25252520id%2525253D%252525222%25252522%25252520value%2525253D%25252522T_Id%25252522%25252520style%2525253D%25252522ellipse%2525253BwhiteSpace%2525253Dwrap%2525253Bhtml%2525253D1%2525253Balign%2525253Dcenter%2525253BfontStyle%2525253D4%2525253B%25252522%25252520vertex%2525253D%252525221%25252522%25252520parent%2525253D%252525221%25252522%2525253E%2525253CmxGeometry%25252520y%2525253D%2525252260%25252522%25252520width%2525253D%2525252260%25252522%25252520height%2525253D%2525252220%25252522%25252520as%2525253D%25252522geometry%25252522%2525252F%2525253E%2525253C%2525252FmxCell%2525253E%2525253C%2525252Froot%2525253E%2525253C%2525252FmxGraphModel%2525253E%252526lt%25253B%25252Fspan%252526gt%25253B%252522%252520style%25253D%252522ellipse%25253BwhiteSpace%25253Dwrap%25253Bhtml%25253D1%25253Balign%25253Dcenter%25253BfontStyle%25253D4%25253B%252522%252520vertex%25253D%2525221%252522%252520parent%25253D%2525221%252522%25253E%25253CmxGeometry%252520x%25253D%25252260%252522%252520y%25253D%25252280%252522%252520width%25253D%25252260%252522%252520height%25253D%25252220%252522%252520as%25253D%252522geometry%252522%25252F%25253E%25253C%25252FmxCell%25253E%25253C%25252Froot%25253E%25253C%25252FmxGraphModel%25253E%2526lt%253B%252Fspan%2526gt%253B%2526lt%253Bspan%2520style%253D%2526quot%253Bcolor%253A%2520rgba(0%252C%25200%252C%25200%252C%25200)%253B%2520font-family%253A%2520monospace%253B%2520font-size%253A%25200px%253B%2520text-align%253A%2520start%253B%2520text-wrap-mode%253A%2520nowrap%253B%2526quot%253B%2526gt%253B%25253CmxGraphModel%25253E%25253Croot%25253E%25253CmxCell%252520id%25253D%2525220%252522%25252F%25253E%25253CmxCell%252520id%25253D%2525221%252522%252520parent%25253D%2525220%252522%25252F%25253E%25253CmxCell%252520id%25253D%2525222%252522%252520value%25253D%252522T_Id%252522%252520style%25253D%252522ellipse%25253BwhiteSpace%25253Dwrap%25253Bhtml%25253D1%25253Balign%25253Dcenter%25253BfontStyle%25253D4%25253B%252522%252520vertex%25253D%2525221%252522%252520parent%25253D%2525221%252522%25253E%25253CmxGeometry%252520y%25253D%25252260%252522%252520width%25253D%25252260%252522%252520height%25253D%25252220%252522%252520as%25253D%252522geometry%252522%25252F%25253E%25253C%25252FmxCell%25253E%25253C%25252Froot%25253E%25253C%25252FmxGraphModel%25253E%2526lt%253B%252Fspan%2526gt%253B%2522%2520style%253D%2522ellipse%253BwhiteSpace%253Dwrap%253Bhtml%253D1%253Balign%253Dcenter%253BfontStyle%253D4%253B%2522%2520vertex%253D%25221%2522%2520parent%253D%25221%2522%253E%253CmxGeometry%2520x%253D%2522120%2522%2520y%253D%2522110%2522%2520width%253D%252260%2522%2520height%253D%252220%2522%2520as%253D%2522geometry%2522%252F%253E%253C%252FmxCell%253E%253C%252Froot%253E%253C%252FmxGraphModel%253E%26lt%3B%2Fspan%26gt%3B%22%20style%3D%22ellipse%3BwhiteSpace%3Dwrap%3Bhtml%3D1%3Balign%3Dcenter%3B%22%20vertex%3D%221%22%20parent%3D%221%22%3E%3CmxGeometry%20x%3D%22395%22%20y%3D%2280%22%20width%3D%2260%22%20height%3D%2220%22%20as%3D%22geometry%22%2F%3E%3C%2FmxCell%3E%3C%2Froot%3E%3C%2FmxGraphModel&lt;/span&gt;&lt;span style=&quot;background-color: initial; text-wrap-mode: nowrap; color: rgba(0, 0, 0, 0); font-family: monospace; font-size: 0px; text-align: start;&quot;&gt;xGraphModel%3E%3Croot%3E%3CmxCell%20id%3D%220%22%2F%3E%3CmxCell%20id%3D%221%22%20parent%3D%220%22%2F%3E%3CmxCell%20id%3D%222%22%20value%3D%22CrsName%26lt%3Bspan%20style%3D%26quot%3Bcolor%3A%20rgba(0%2C%200%2C%200%2C%200)%3B%20font-family%3A%20monospace%3B%20font-size%3A%200px%3B%20text-align%3A%20start%3B%20text-wrap-mode%3A%20nowrap%3B%26quot%3B%26gt%3B%253CmxGraphModel%253E%253Croot%253E%253CmxCell%2520id%253D%25220%2522%252F%253E%253CmxCell%2520id%253D%25221%2522%2520parent%253D%25220%2522%252F%253E%253CmxCell%2520id%253D%25222%2522%2520value%253D%2522T_Email%2526lt%253Bspan%2520style%253D%2526quot%253Bcolor%253A%2520rgba(0%252C%25200%252C%25200%252C%25200)%253B%2520font-family%253A%2520monospace%253B%2520font-size%253A%25200px%253B%2520text-align%253A%2520start%253B%2520text-wrap-mode%253A%2520nowrap%253B%2526quot%253B%2526gt%253B%25253CmxGraphModel%25253E%25253Croot%25253E%25253CmxCell%252520id%25253D%2525220%252522%25252F%25253E%25253CmxCell%252520id%25253D%2525221%252522%252520parent%25253D%2525220%252522%25252F%25253E%25253CmxCell%252520id%25253D%2525222%252522%252520value%25253D%252522T_Name%252526lt%25253Bspan%252520style%25253D%252526quot%25253Bcolor%25253A%252520rgba(0%25252C%2525200%25252C%2525200%25252C%2525200)%25253B%252520font-family%25253A%252520monospace%25253B%252520font-size%25253A%2525200px%25253B%252520text-align%25253A%252520start%25253B%252520text-wrap-mode%25253A%252520nowrap%25253B%252526quot%25253B%252526gt%25253B%2525253CmxGraphModel%2525253E%2525253Croot%2525253E%2525253CmxCell%25252520id%2525253D%252525220%25252522%2525252F%2525253E%2525253CmxCell%25252520id%2525253D%252525221%25252522%25252520parent%2525253D%252525220%25252522%2525252F%2525253E%2525253CmxCell%25252520id%2525253D%252525222%25252522%25252520value%2525253D%25252522T_Id%25252522%25252520style%2525253D%25252522ellipse%2525253BwhiteSpace%2525253Dwrap%2525253Bhtml%2525253D1%2525253Balign%2525253Dcenter%2525253BfontStyle%2525253D4%2525253B%25252522%25252520vertex%2525253D%252525221%25252522%25252520parent%2525253D%252525221%25252522%2525253E%2525253CmxGeometry%25252520y%2525253D%2525252260%25252522%25252520width%2525253D%2525252260%25252522%25252520height%2525253D%2525252220%25252522%25252520as%2525253D%25252522geometry%25252522%2525252F%2525253E%2525253C%2525252FmxCell%2525253E%2525253C%2525252Froot%2525253E%2525253C%2525252FmxGraphModel%2525253E%252526lt%25253B%25252Fspan%252526gt%25253B%252522%252520style%25253D%252522ellipse%25253BwhiteSpace%25253Dwrap%25253Bhtml%25253D1%25253Balign%25253Dcenter%25253BfontStyle%25253D4%25253B%252522%252520vertex%25253D%2525221%252522%252520parent%25253D%2525221%252522%25253E%25253CmxGeometry%252520x%25253D%25252260%252522%252520y%25253D%25252280%252522%252520width%25253D%25252260%252522%252520height%25253D%25252220%252522%252520as%25253D%252522geometry%252522%25252F%25253E%25253C%25252FmxCell%25253E%25253C%25252Froot%25253E%25253C%25252FmxGraphModel%25253E%2526lt%253B%252Fspan%2526gt%253B%2526lt%253Bspan%2520style%253D%2526quot%253Bcolor%253A%2520rgba(0%252C%25200%252C%25200%252C%25200)%253B%2520font-family%253A%2520monospace%253B%2520font-size%253A%25200px%253B%2520text-align%253A%2520start%253B%2520text-wrap-mode%253A%2520nowrap%253B%2526quot%253B%2526gt%253B%25253CmxGraphModel%25253E%25253Croot%25253E%25253CmxCell%252520id%25253D%2525220%252522%25252F%25253E%25253CmxCell%252520id%25253D%2525221%252522%252520parent%25253D%2525220%252522%25252F%25253E%25253CmxCell%252520id%25253D%2525222%252522%252520value%25253D%252522T_Id%252522%252520style%25253D%252522ellipse%25253BwhiteSpace%25253Dwrap%25253Bhtml%25253D1%25253Balign%25253Dcenter%25253BfontStyle%25253D4%25253B%252522%252520vertex%25253D%2525221%252522%252520parent%25253D%2525221%252522%25253E%25253CmxGeometry%252520y%25253D%25252260%252522%252520width%25253D%25252260%252522%252520height%25253D%25252220%252522%252520as%25253D%252522geometry%252522%25252F%25253E%25253C%25252FmxCell%25253E%25253C%25252Froot%25253E%25253C%25252FmxGraphModel%25253E%2526lt%253B%252Fspan%2526gt%253B%2522%2520style%253D%2522ellipse%253BwhiteSpace%253Dwrap%253Bhtml%253D1%253Balign%253Dcenter%253BfontStyle%253D4%253B%2522%2520vertex%253D%25221%2522%2520parent%253D%25221%2522%253E%253CmxGeometry%2520x%253D%2522120%2522%2520y%253D%2522110%2522%2520width%253D%252260%2522%2520height%253D%252220%2522%2520as%253D%2522geometry%2522%252F%253E%253C%252FmxCell%253E%253C%252Froot%253E%253C%252FmxGraphModel%253E%26lt%3B%2Fspan%26gt%3B%22%20style%3D%22ellipse%3BwhiteSpace%3Dwrap%3Bhtml%3D1%3Balign%3Dcenter%3B%22%20vertex%3D%221%22%20parent%3D%221%22%3E%3CmxGeometry%20x%3D%22395%22%20y%3D%2280%22%20width%3D%2260%22%20height%3D%2220%22%20as%3D%22geometry%22%2F%3E%3C%2FmxCell%3E%3C%2Froot%3E%3C%2FmxGraphModel%Date&lt;/span&gt;&lt;span style=&quot;background-color: initial; text-wrap-mode: nowrap; color: rgba(0, 0, 0, 0); font-family: monospace; font-size: 0px; text-align: start;&quot;&gt;%3CmxGraphModel%3E%3Croot%3E%3CmxCell%20id%3D%220%22%2F%3E%3CmxCell%20id%3D%221%22%20parent%3D%220%22%2F%3E%3CmxCell%20id%3D%222%22%20value%3D%22T_Email%26lt%3Bspan%20style%3D%26quot%3Bcolor%3A%20rgba(0%2C%200%2C%200%2C%200)%3B%20font-family%3A%20monospace%3B%20font-size%3A%200px%3B%20text-align%3A%20start%3B%20text-wrap-mode%3A%20nowrap%3B%26quot%3B%26gt%3B%253CmxGraphModel%253E%253Croot%253E%253CmxCell%2520id%253D%25220%2522%252F%253E%253CmxCell%2520id%253D%25221%2522%2520parent%253D%25220%2522%252F%253E%253CmxCell%2520id%253D%25222%2522%2520value%253D%2522T_Name%2526lt%253Bspan%2520style%253D%2526quot%253Bcolor%253A%2520rgba(0%252C%25200%252C%25200%252C%25200)%253B%2520font-family%253A%2520monospace%253B%2520font-size%253A%25200px%253B%2520text-align%253A%2520start%253B%2520text-wrap-mode%253A%2520nowrap%253B%2526quot%253B%2526gt%253B%25253CmxGraphModel%25253E%25253Croot%25253E%25253CmxCell%252520id%25253D%2525220%252522%25252F%25253E%25253CmxCell%252520id%25253D%2525221%252522%252520parent%25253D%2525220%252522%25252F%25253E%25253CmxCell%252520id%25253D%2525222%252522%252520value%25253D%252522T_Id%252522%252520style%25253D%252522ellipse%25253BwhiteSpace%25253Dwrap%25253Bhtml%25253D1%25253Balign%25253Dcenter%25253BfontStyle%25253D4%25253B%252522%252520vertex%25253D%2525221%252522%252520parent%25253D%2525221%252522%25253E%25253CmxGeometry%252520y%25253D%25252260%252522%252520width%25253D%25252260%252522%252520height%25253D%25252220%252522%252520as%25253D%252522geometry%252522%25252F%25253E%25253C%25252FmxCell%25253E%25253C%25252Froot%25253E%25253C%25252FmxGraphModel%25253E%2526lt%253B%252Fspan%2526gt%253B%2522%2520style%253D%2522ellipse%253BwhiteSpace%253Dwrap%253Bhtml%253D1%253Balign%253Dcenter%253BfontStyle%253D4%253B%2522%2520vertex%253D%25221%2522%2520parent%253D%25221%2522%253E%253CmxGeometry%2520x%253D%252260%2522%2520y%253D%252280%2522%2520width%253D%252260%2522%2520height%253D%252220%2522%2520as%253D%2522geometry%2522%252F%253E%253C%252FmxCell%253E%253C%252Froot%253E%253C%252FmxGraphModel%253E%26lt%3B%2Fspan%26gt%3B%26lt%3Bspan%20style%3D%26quot%3Bcolor%3A%20rgba(0%2C%200%2C%200%2C%200)%3B%20font-family%3A%20monospace%3B%20font-size%3A%200px%3B%20text-align%3A%20start%3B%20text-wrap-mode%3A%20nowrap%3B%26quot%3B%26gt%3B%253CmxGraphModel%253E%253Croot%253E%253CmxCell%2520id%253D%25220%2522%252F%253E%253CmxCell%2520id%253D%25221%2522%2520parent%253D%25220%2522%252F%253E%253CmxCell%2520id%253D%25222%2522%2520value%253D%2522T_Id%2522%2520style%253D%2522ellipse%253BwhiteSpace%253Dwrap%253Bhtml%253D1%253Balign%253Dcenter%253BfontStyle%253D4%253B%2522%2520vertex%253D%25221%2522%2520parent%253D%25221%2522%253E%253CmxGeometry%2520y%253D%252260%2522%2520width%253D%252260%2522%2520height%253D%252220%2522%2520as%253D%2522geometry%2522%252F%253E%253C%252FmxCell%253E%253C%252Froot%253E%253C%252FmxGraphModel%253E%26lt%3B%2Fspan%26gt%3B%22%20style%3D%22ellipse%3BwhiteSpace%3Dwrap%3Bhtml%3D1%3Balign%3Dcenter%3BfontStyle%3D4%3B%22%20vertex%3D%221%22%20parent%3D%221%22%3E%3CmxGeometry%20x%3D%22120%22%20y%3D%22110%22%20width%3D%2260%22%20height%3D%2220%22%20as%3D%22geometry%22%2F%3E%3C%2FmxCell%3E%3C%2Froot%3E%3C%2FmxGraphModel%3E&lt;/span&gt;&lt;/div&gt;" style="ellipse;whiteSpace=wrap;html=1;align=center;" vertex="1" parent="1">
          <mxGeometry x="640" y="480" width="60" height="20" as="geometry" />
        </mxCell>
        <mxCell id="P0WSRWI9Bc2csYWGWG9O-71" value="&lt;div style=&quot;text-align: start;&quot;&gt;duration&lt;/div&gt;" style="ellipse;whiteSpace=wrap;html=1;align=center;" vertex="1" parent="1">
          <mxGeometry x="770" y="450" width="60" height="20" as="geometry" />
        </mxCell>
        <mxCell id="P0WSRWI9Bc2csYWGWG9O-72" value="studentId&lt;span style=&quot;color: rgba(0, 0, 0, 0); font-family: monospace; font-size: 0px; text-align: start; text-wrap-mode: nowrap;&quot;&gt;%3CmxGraphModel%3E%3Croot%3E%3CmxCell%20id%3D%220%22%2F%3E%3CmxCell%20id%3D%221%22%20parent%3D%220%22%2F%3E%3CmxCell%20id%3D%222%22%20value%3D%22CrsId%22%20style%3D%22ellipse%3BwhiteSpace%3Dwrap%3Bhtml%3D1%3Balign%3Dcenter%3BfontStyle%3D4%3B%22%20vertex%3D%221%22%20parent%3D%221%22%3E%3CmxGeometry%20x%3D%22335%22%20y%3D%22100%22%20width%3D%2260%22%20height%3D%2220%22%20as%3D%22geometry%22%2F%3E%3C%2FmxCell%3E%3C%2Froot%3E%3C%2FmxGraphModel%3E&lt;/span&gt;" style="ellipse;whiteSpace=wrap;html=1;align=center;fontStyle=4;" vertex="1" parent="1">
          <mxGeometry x="620" y="120" width="80" height="30" as="geometry" />
        </mxCell>
        <mxCell id="P0WSRWI9Bc2csYWGWG9O-73" value="Name" style="ellipse;whiteSpace=wrap;html=1;align=center;" vertex="1" parent="1">
          <mxGeometry x="660" y="20" width="50" height="20" as="geometry" />
        </mxCell>
        <mxCell id="P0WSRWI9Bc2csYWGWG9O-74" value="email" style="ellipse;whiteSpace=wrap;html=1;align=center;" vertex="1" parent="1">
          <mxGeometry x="710" y="40" width="60" height="30" as="geometry" />
        </mxCell>
        <mxCell id="P0WSRWI9Bc2csYWGWG9O-75" value="Courseid" style="ellipse;whiteSpace=wrap;html=1;align=center;" vertex="1" parent="1">
          <mxGeometry x="650" y="80" width="60" height="30" as="geometry" />
        </mxCell>
        <mxCell id="P0WSRWI9Bc2csYWGWG9O-76" value="Phone" style="ellipse;shape=doubleEllipse;margin=3;whiteSpace=wrap;html=1;align=center;" vertex="1" parent="1">
          <mxGeometry x="780" y="45" width="60" height="30" as="geometry" />
        </mxCell>
        <mxCell id="P0WSRWI9Bc2csYWGWG9O-77" value="" style="endArrow=none;html=1;rounded=0;entryX=0.2;entryY=0;entryDx=0;entryDy=0;entryPerimeter=0;" edge="1" parent="1" target="P0WSRWI9Bc2csYWGWG9O-3">
          <mxGeometry relative="1" as="geometry">
            <mxPoint x="700" y="140" as="sourcePoint" />
            <mxPoint x="860" y="140" as="targetPoint" />
          </mxGeometry>
        </mxCell>
        <mxCell id="P0WSRWI9Bc2csYWGWG9O-78" value="" style="endArrow=none;html=1;rounded=0;entryX=0.353;entryY=-0.021;entryDx=0;entryDy=0;entryPerimeter=0;exitX=0.5;exitY=1;exitDx=0;exitDy=0;" edge="1" parent="1" source="P0WSRWI9Bc2csYWGWG9O-75" target="P0WSRWI9Bc2csYWGWG9O-3">
          <mxGeometry relative="1" as="geometry">
            <mxPoint x="710" y="150" as="sourcePoint" />
            <mxPoint x="760" y="170" as="targetPoint" />
          </mxGeometry>
        </mxCell>
        <mxCell id="P0WSRWI9Bc2csYWGWG9O-80" value="" style="endArrow=none;html=1;rounded=0;exitX=0.5;exitY=1;exitDx=0;exitDy=0;" edge="1" parent="1" source="P0WSRWI9Bc2csYWGWG9O-73">
          <mxGeometry relative="1" as="geometry">
            <mxPoint x="740" y="110" as="sourcePoint" />
            <mxPoint x="780" y="160" as="targetPoint" />
          </mxGeometry>
        </mxCell>
        <mxCell id="P0WSRWI9Bc2csYWGWG9O-81" value="" style="endArrow=none;html=1;rounded=0;exitX=0.5;exitY=1;exitDx=0;exitDy=0;entryX=0.618;entryY=0.021;entryDx=0;entryDy=0;entryPerimeter=0;" edge="1" parent="1" source="P0WSRWI9Bc2csYWGWG9O-74" target="P0WSRWI9Bc2csYWGWG9O-3">
          <mxGeometry relative="1" as="geometry">
            <mxPoint x="810" y="90" as="sourcePoint" />
            <mxPoint x="790" y="170" as="targetPoint" />
          </mxGeometry>
        </mxCell>
        <mxCell id="P0WSRWI9Bc2csYWGWG9O-82" value="" style="endArrow=none;html=1;rounded=0;exitX=0.5;exitY=1;exitDx=0;exitDy=0;entryX=0.833;entryY=-0.034;entryDx=0;entryDy=0;entryPerimeter=0;" edge="1" parent="1" source="P0WSRWI9Bc2csYWGWG9O-76" target="P0WSRWI9Bc2csYWGWG9O-3">
          <mxGeometry relative="1" as="geometry">
            <mxPoint x="850" y="93" as="sourcePoint" />
            <mxPoint x="802" y="171" as="targetPoint" />
          </mxGeometry>
        </mxCell>
        <mxCell id="P0WSRWI9Bc2csYWGWG9O-83" value="" style="endArrow=none;html=1;rounded=0;exitX=0.639;exitY=-0.107;exitDx=0;exitDy=0;exitPerimeter=0;entryX=0;entryY=1;entryDx=0;entryDy=0;" edge="1" parent="1" source="P0WSRWI9Bc2csYWGWG9O-67" target="P0WSRWI9Bc2csYWGWG9O-15">
          <mxGeometry relative="1" as="geometry">
            <mxPoint x="700" y="410" as="sourcePoint" />
            <mxPoint x="860" y="410" as="targetPoint" />
          </mxGeometry>
        </mxCell>
        <mxCell id="P0WSRWI9Bc2csYWGWG9O-84" value="" style="endArrow=none;html=1;rounded=0;exitX=0.5;exitY=0;exitDx=0;exitDy=0;entryX=0.182;entryY=1.033;entryDx=0;entryDy=0;entryPerimeter=0;" edge="1" parent="1" source="P0WSRWI9Bc2csYWGWG9O-70" target="P0WSRWI9Bc2csYWGWG9O-15">
          <mxGeometry relative="1" as="geometry">
            <mxPoint x="702" y="438" as="sourcePoint" />
            <mxPoint x="740" y="420" as="targetPoint" />
          </mxGeometry>
        </mxCell>
        <mxCell id="P0WSRWI9Bc2csYWGWG9O-85" value="" style="endArrow=none;html=1;rounded=0;exitX=0.262;exitY=-0.117;exitDx=0;exitDy=0;entryX=0.43;entryY=1.074;entryDx=0;entryDy=0;entryPerimeter=0;exitPerimeter=0;" edge="1" parent="1" source="P0WSRWI9Bc2csYWGWG9O-69" target="P0WSRWI9Bc2csYWGWG9O-15">
          <mxGeometry relative="1" as="geometry">
            <mxPoint x="740" y="470" as="sourcePoint" />
            <mxPoint x="758" y="421" as="targetPoint" />
          </mxGeometry>
        </mxCell>
        <mxCell id="P0WSRWI9Bc2csYWGWG9O-86" value="" style="endArrow=none;html=1;rounded=0;exitX=0.5;exitY=0;exitDx=0;exitDy=0;entryX=0.75;entryY=1;entryDx=0;entryDy=0;" edge="1" parent="1" source="P0WSRWI9Bc2csYWGWG9O-71" target="P0WSRWI9Bc2csYWGWG9O-15">
          <mxGeometry relative="1" as="geometry">
            <mxPoint x="796" y="468" as="sourcePoint" />
            <mxPoint x="783" y="423" as="targetPoint" />
          </mxGeometry>
        </mxCell>
        <mxCell id="P0WSRWI9Bc2csYWGWG9O-87" value="" style="endArrow=none;html=1;rounded=0;exitX=0.5;exitY=0;exitDx=0;exitDy=0;entryX=0.5;entryY=1;entryDx=0;entryDy=0;" edge="1" parent="1" source="P0WSRWI9Bc2csYWGWG9O-64" target="P0WSRWI9Bc2csYWGWG9O-4">
          <mxGeometry relative="1" as="geometry">
            <mxPoint x="540" y="455" as="sourcePoint" />
            <mxPoint x="527" y="410" as="targetPoint" />
          </mxGeometry>
        </mxCell>
        <mxCell id="P0WSRWI9Bc2csYWGWG9O-88" value="" style="endArrow=none;html=1;rounded=0;exitX=1;exitY=0;exitDx=0;exitDy=0;entryX=0;entryY=1;entryDx=0;entryDy=0;" edge="1" parent="1" source="P0WSRWI9Bc2csYWGWG9O-63" target="P0WSRWI9Bc2csYWGWG9O-4">
          <mxGeometry relative="1" as="geometry">
            <mxPoint x="440" y="440" as="sourcePoint" />
            <mxPoint x="445" y="410" as="targetPoint" />
          </mxGeometry>
        </mxCell>
      </root>
    </mxGraphModel>
  </diagram>
</mxfile>
